<?xml version="1.0" encoding="UTF-8" standalone="no"?>
<!-- Created with Inkscape (http://www.inkscape.org/) -->

<svg
   xmlns:dc="http://purl.org/dc/elements/1.1/"
   xmlns:cc="http://creativecommons.org/ns#"
   xmlns:rdf="http://www.w3.org/1999/02/22-rdf-syntax-ns#"
   xmlns:svg="http://www.w3.org/2000/svg"
   xmlns="http://www.w3.org/2000/svg"
   xmlns:sodipodi="http://sodipodi.sourceforge.net/DTD/sodipodi-0.dtd"
   xmlns:inkscape="http://www.inkscape.org/namespaces/inkscape"
   width="128.55122mm"
   height="164.44305mm"
   viewBox="0 0 128.55122 164.44305"
   version="1.1"
   id="svg8"
   inkscape:version="0.92.3 (2405546, 2018-03-11)"
   sodipodi:docname="it-yes.svg"
   inkscape:export-filename="/home/research/Pictures/it-yes.png"
   inkscape:export-xdpi="300"
   inkscape:export-ydpi="300">
  <defs
     id="defs2">
    <inkscape:path-effect
       effect="spiro"
       id="path-effect845"
       is_visible="true" />
    <inkscape:path-effect
       effect="simplify"
       id="path-effect843"
       is_visible="true"
       steps="1"
       threshold="0.0199049"
       smooth_angles="360"
       helper_size="0"
       simplify_individual_paths="false"
       simplify_just_coalesce="false"
       simplifyindividualpaths="false"
       simplifyJustCoalesce="false" />
    <inkscape:path-effect
       effect="spiro"
       id="path-effect833"
       is_visible="true" />
    <inkscape:path-effect
       effect="simplify"
       id="path-effect831"
       is_visible="true"
       steps="1"
       threshold="0.0199049"
       smooth_angles="360"
       helper_size="0"
       simplify_individual_paths="false"
       simplify_just_coalesce="false"
       simplifyindividualpaths="false"
       simplifyJustCoalesce="false" />
  </defs>
  <sodipodi:namedview
     id="base"
     pagecolor="#ffffff"
     bordercolor="#666666"
     borderopacity="1.0"
     inkscape:pageopacity="0.0"
     inkscape:pageshadow="2"
     inkscape:zoom="0.7"
     inkscape:cx="209.44821"
     inkscape:cy="316.44519"
     inkscape:document-units="mm"
     inkscape:current-layer="layer1"
     showgrid="false"
     inkscape:window-width="1920"
     inkscape:window-height="1031"
     inkscape:window-x="0"
     inkscape:window-y="0"
     inkscape:window-maximized="1" />
  <metadata
     id="metadata5">
    <rdf:RDF>
      <cc:Work
         rdf:about="">
        <dc:format>image/svg+xml</dc:format>
        <dc:type
           rdf:resource="http://purl.org/dc/dcmitype/StillImage" />
        <dc:title></dc:title>
      </cc:Work>
    </rdf:RDF>
  </metadata>
  <g
     inkscape:label="Layer 1"
     inkscape:groupmode="layer"
     id="layer1"
     transform="translate(-21.704186,-41.298732)">
    <path
       style="opacity:1;vector-effect:none;fill:#000000;fill-opacity:1;fill-rule:nonzero;stroke:none;stroke-width:1.06500006;stroke-linecap:round;stroke-linejoin:miter;stroke-miterlimit:4;stroke-dasharray:none;stroke-dashoffset:0;stroke-opacity:1;paint-order:stroke fill markers"
       id="path863"
       d="m 55.145048,90.280407 c 0.180337,0.36594 0.367011,0.728826 0.541009,1.097825 0.941041,1.995673 0.607822,1.44603 1.712254,3.605903 1.25499,2.454307 2.652244,4.806799 4.096287,7.152795 2.184201,3.39622 4.532841,6.88109 7.96631,9.14641 0.59899,0.3952 1.252556,0.70071 1.878835,1.05106 0.70779,0.28023 1.399308,0.60567 2.123366,0.84068 2.709844,0.87954 5.589905,1.19623 8.414663,1.42821 1.130033,0.0928 2.261389,0.18509 3.394908,0.21185 1.122747,0.0265 2.245847,-0.0348 3.368768,-0.0522 3.316965,-0.32541 7.156675,-0.44695 9.712785,-2.923 1.139357,-1.10367 1.271217,-1.74222 1.923437,-3.15801 1.34197,-4.47151 1.31768,-9.207549 1.34519,-13.836792 -0.0524,-2.438484 0.0676,-4.87522 0.16836,-7.310728 0.0773,-1.869289 2.7209,-1.759937 2.64358,0.109352 v 0 c -0.0995,2.404407 -0.21887,4.810001 -0.16615,7.217357 -0.0249,4.061979 0.004,8.516191 -0.88488,12.483961 -0.1891,0.84403 -0.48364,1.66093 -0.72546,2.49139 -0.96344,1.91335 -1.12875,2.6894 -2.7604,4.15231 -3.064851,2.74789 -7.315678,3.10582 -11.218576,3.41973 -1.190773,0.0157 -2.381798,0.0765 -3.572314,0.0472 -1.169829,-0.0287 -2.337449,-0.1237 -3.503584,-0.22092 -3.070939,-0.25603 -6.189599,-0.62146 -9.12708,-1.60483 -0.833659,-0.27908 -1.628444,-0.66308 -2.442667,-0.99462 -0.730639,-0.41983 -1.492446,-0.78957 -2.191914,-1.2595 -3.679246,-2.47187 -6.253496,-6.17774 -8.600705,-9.8526 -1.487728,-2.41952 -2.92686,-4.84583 -4.219641,-7.376908 -1.173901,-2.29833 -0.746318,-1.557891 -1.709073,-3.599418 -0.18346,-0.389028 -0.379746,-0.77188 -0.569616,-1.15782 -0.784011,-1.698691 1.618297,-2.807448 2.402308,-1.108757 z"
       inkscape:connector-curvature="0" />
    <path
       style="opacity:1;vector-effect:none;fill:#800000;fill-opacity:1;fill-rule:nonzero;stroke:none;stroke-width:1.06500006;stroke-linecap:round;stroke-linejoin:miter;stroke-miterlimit:4;stroke-dasharray:none;stroke-dashoffset:0;stroke-opacity:1;paint-order:stroke fill markers"
       id="path865"
       d="m 51.578102,89.273408 c 3.497961,-1.462905 7.355649,-1.681102 11.086827,-2.001337 9.342618,-0.604142 18.70361,-0.931887 28.059832,-1.262071 9.033211,-0.471363 18.050129,-1.191268 27.082869,-1.673976 0.87166,-0.07162 1.74333,-0.143246 2.61499,-0.214868 1.86463,-0.152832 2.08077,2.484159 0.21614,2.636991 v 0 c -0.89666,0.07331 -1.79331,0.146626 -2.68996,0.21994 -9.0487,0.483417 -18.081449,1.206084 -27.130736,1.676101 -9.312177,0.328554 -18.629045,0.655161 -27.927813,1.254104 -3.448706,0.293489 -7.02845,0.466553 -10.269905,1.79702 -1.719614,0.736979 -2.761861,-1.694926 -1.042244,-2.431904 z"
       inkscape:connector-curvature="0" />
    <path
       style="opacity:1;vector-effect:none;fill:#800000;fill-opacity:1;fill-rule:nonzero;stroke:none;stroke-width:1.06500006;stroke-linecap:round;stroke-linejoin:miter;stroke-miterlimit:4;stroke-dasharray:none;stroke-dashoffset:0;stroke-opacity:1;paint-order:stroke fill markers"
       id="path873"
       d="m 50.081843,88.373417 c -0.0443,-1.894639 -0.02008,-3.766926 0.277522,-5.640713 0.282678,-2.092153 0.921044,-4.091961 1.62089,-6.073285 0.551178,-1.605449 1.412997,-3.051556 2.348789,-4.455724 0.943226,-1.460007 2.095455,-2.738344 3.428965,-3.845872 1.057352,-0.879382 2.242021,-1.589902 3.461144,-2.219065 1.636453,-0.766289 3.315753,-1.429809 4.981422,-2.127703 2.189967,-0.882314 4.412967,-1.658273 6.692011,-2.275697 2.212657,-0.62367 4.488629,-0.914112 6.775468,-1.072798 2.192139,-0.110757 4.388019,-0.09942 6.582259,-0.09879 1.580272,0.02267 3.162747,-0.03941 4.740699,0.05805 1.91676,0.163192 3.688709,0.827556 5.361082,1.743033 1.6022,0.927131 3.117874,1.989039 4.547076,3.163339 1.6129,1.282502 2.77176,2.991181 3.96677,4.64275 1.06278,1.373693 1.82792,2.925228 2.59918,4.470797 0.6403,1.260832 1.03563,2.617091 1.42821,3.96921 0.32703,1.171345 0.45447,2.378549 0.5128,3.588819 -0.004,0.80545 -0.009,1.459336 0.23283,2.228908 0.52574,1.795497 -2.01347,2.539008 -2.53922,0.743511 v 0 c -0.2642,-0.942287 -0.3727,-1.868842 -0.33648,-2.847287 -0.0465,-1.003252 -0.14398,-2.004623 -0.41103,-2.976912 -0.34754,-1.19952 -0.68814,-2.405464 -1.25457,-3.524906 -0.70688,-1.416677 -1.39676,-2.844202 -2.37527,-4.101139 -1.06264,-1.468612 -2.07459,-3.006786 -3.505554,-4.151651 -1.301269,-1.075254 -2.687773,-2.039361 -4.146331,-2.890711 -1.321744,-0.742497 -2.729528,-1.272246 -4.25124,-1.417508 -1.519878,-0.105177 -3.047338,-0.01757 -4.56973,-0.05247 -2.13334,-5.29e-4 -4.268231,-0.01199 -6.399649,0.09253 -2.115534,0.144585 -4.221075,0.409226 -6.267738,0.987613 -2.167271,0.582772 -4.277452,1.326584 -6.359959,2.161948 -1.603073,0.670412 -3.217706,1.310486 -4.79517,2.041096 -1.051973,0.535964 -2.071153,1.149691 -2.982625,1.903786 -1.139708,0.938106 -2.111941,2.030843 -2.914059,3.27502 -0.814872,1.221216 -1.577862,2.469954 -2.055305,3.869031 -0.647332,1.832623 -1.248082,3.678566 -1.503955,5.615638 -0.287861,1.731677 -0.271904,3.465145 -0.243398,5.217147 0,1.870887 -2.645834,1.870887 -2.645834,0 z"
       inkscape:connector-curvature="0" />
    <path
       style="opacity:1;vector-effect:none;fill:#d4aa00;fill-opacity:1;fill-rule:nonzero;stroke:none;stroke-width:1.06500006;stroke-linecap:round;stroke-linejoin:miter;stroke-miterlimit:4;stroke-dasharray:none;stroke-dashoffset:0;stroke-opacity:1;paint-order:stroke fill markers"
       id="path877"
       d="m 94.419898,82.498511 c -1.402874,0 -2.805748,0 -4.208621,0 -2.243905,-0.06271 -2.521257,-1.4073 -3.141443,-3.184337 -0.505148,-1.497277 -1.352876,-2.846848 -1.691378,-4.395324 -0.113716,-2.155251 1.497898,-2.377819 3.171041,-2.359309 1.067827,0.01265 2.02936,0.576049 3.085688,0.638178 0.05652,-0.01312 0.222512,-0.01561 0.169568,-0.03938 -0.242601,-0.108839 -0.484737,0.17385 -0.631769,0.271745 -0.0526,0.03502 -0.132345,0.151358 -0.16329,0.09627 -0.09488,-0.168915 -0.06244,-0.382606 -0.10387,-0.571865 -0.05132,-0.234482 -0.116163,-0.465799 -0.174244,-0.698699 -0.367393,-1.218083 -1.148091,-2.354368 -0.81039,-3.682642 0.06997,-0.275193 0.23086,-0.518856 0.346289,-0.778283 0.829387,-1.181446 2.119786,-1.43052 3.465291,-1.540901 1.118904,-0.02191 2.241224,0.310443 2.772193,1.394367 0.113342,0.231381 0.166912,0.487521 0.250369,0.731282 0.403149,1.224531 0.774544,2.457228 1.034389,3.720431 0.243385,1.202369 -0.144312,2.301414 -0.531236,3.415559 -0.05695,0.261231 -0.212857,0.551881 -0.150714,0.828992 0.0085,0.03788 0.06212,-0.07309 0.04444,-0.107656 -0.07507,-0.146733 -0.185264,-0.272653 -0.277895,-0.40898 -0.03372,-0.03493 -0.133913,-0.06897 -0.101153,-0.104801 0.05168,-0.05653 0.152168,-0.01868 0.227359,-0.03326 0.127942,-0.02482 0.257276,-0.04595 0.381657,-0.08487 0.52574,-0.164505 1.022609,-0.458833 1.513226,-0.702247 1.251025,-0.565634 2.335175,-0.992103 3.327025,0.377966 0.13902,0.192034 0.16727,0.443661 0.25091,0.66549 0.23772,1.27903 -0.17739,2.378186 -0.85629,3.439078 -0.8489,1.029581 -1.960524,1.72707 -3.179266,2.234499 -0.739979,0.247076 -1.485503,0.477824 -2.202915,0.783029 -0.288394,0.123894 -0.165556,0.05943 -0.374497,0.181554 -1.646394,0.888601 -2.903061,-1.439748 -1.25667,-2.328349 v 0 c 0.426135,-0.222633 0.22633,-0.129349 0.595569,-0.287948 0.730559,-0.310677 1.485178,-0.559099 2.241611,-0.799124 0.733896,-0.287549 1.360985,-0.690891 1.950492,-1.214332 0.253429,-0.392012 0.522438,-0.773959 0.546579,-1.251918 0.280297,-0.01458 -0.447887,0.01381 0.526727,0.275862 0.16045,0.04314 0.33224,-0.0082 0.49817,-0.01683 0.0298,-0.0016 -0.0606,-0.01254 -0.0893,-0.0044 -0.19498,0.055 -0.63814,0.247377 -0.80304,0.316061 -1.392571,0.68971 -2.790203,1.372012 -4.372861,0.924372 -0.291433,-0.23504 -0.631579,-0.42005 -0.874295,-0.70512 -0.619738,-0.727877 -0.314666,-2.03835 -0.06388,-2.846049 0.229519,-0.65922 0.547513,-1.302644 0.437441,-2.019604 -0.240823,-1.203127 -0.616312,-2.369982 -0.990351,-3.537371 0.03813,-0.186304 0.366268,-0.08434 0.263075,-0.125341 -0.06119,-0.02431 -0.458726,-0.0645 -0.530516,-0.07251 -0.451575,0.03294 -0.899871,0.102377 -1.345131,0.16325 -0.192426,-0.03167 -0.210222,0.0043 -0.131675,0.277932 0.224404,0.781777 0.689459,1.486556 0.839578,2.29512 0.21444,0.892844 0.591701,2.037334 0.253318,2.953369 -0.357632,0.968145 -1.261475,1.246164 -2.171589,1.250148 -0.98488,-0.111315 -1.906326,-0.428556 -2.870491,-0.626438 -0.244377,-0.0042 -0.488969,0.0046 -0.733229,-0.0039 -0.03803,-0.0013 -0.128093,0.01672 -0.112721,-0.0181 0.05265,-0.119229 0.199404,-0.179506 0.252529,-0.298521 0.280948,-0.629399 0.22846,-0.579795 0.05614,-0.469807 0.08158,0.599858 0.353906,1.059905 0.605432,1.611079 0.361633,0.792462 0.682731,1.603611 0.987608,2.419266 0.08611,0.248398 0.177673,0.494974 0.258336,0.745196 0.05892,0.182774 0.180393,0.521205 0.103995,0.557054 -0.06007,0.02819 -0.13907,-0.03891 -0.198824,-0.01005 -0.147854,0.07143 1.307031,0.530678 0.478907,0.115369 1.402873,0 2.805747,0 4.208621,0 1.870887,0 1.870887,2.645834 0,2.645834 z"
       inkscape:connector-curvature="0" />
    <path
       style="opacity:1;vector-effect:none;fill:#000000;fill-opacity:1;fill-rule:nonzero;stroke:none;stroke-width:1.06500006;stroke-linecap:round;stroke-linejoin:miter;stroke-miterlimit:4;stroke-dasharray:none;stroke-dashoffset:0;stroke-opacity:1;paint-order:stroke fill markers"
       id="path889"
       d="m 101.11725,109.29982 c 2.10066,-0.51383 4.14025,-1.23553 6.1621,-1.99573 2.60813,-0.98806 5.21073,-1.99241 7.81003,-3.00417 1.59279,-0.60055 0.80417,-0.30808 2.36563,-0.878 1.75752,-0.64136 2.66454,1.84415 0.90702,2.48551 v 0 c -1.52634,0.55689 -0.75528,0.27104 -2.31295,0.85813 -2.60892,1.01546 -5.22126,2.02327 -7.83894,3.01524 -2.21433,0.83181 -4.45131,1.63225 -6.76471,2.14443 -1.856439,0.23205 -2.184615,-2.39335 -0.32818,-2.62541 z"
       inkscape:connector-curvature="0" />
    <path
       style="opacity:1;vector-effect:none;fill:#000000;fill-opacity:1;fill-rule:nonzero;stroke:none;stroke-width:1.06500006;stroke-linecap:round;stroke-linejoin:miter;stroke-miterlimit:4;stroke-dasharray:none;stroke-dashoffset:0;stroke-opacity:1;paint-order:stroke fill markers"
       id="path891"
       d="m 119.58813,104.90352 c 1.21975,2.20096 2.09641,4.54598 2.89046,6.92585 0.68002,1.87708 1.37306,3.74219 1.80991,5.69309 0.20901,0.94764 0.26031,1.91568 0.27166,2.88257 -1.2e-4,0.48061 8e-4,0.24674 -0.002,0.7016 -0.0122,1.87084 -2.658,1.85357 -2.64578,-0.0173 v 0 c 0.003,-0.42855 0.002,-0.21036 0.002,-0.65456 -0.008,-0.78344 -0.0408,-1.5685 -0.20853,-2.33703 -0.41265,-1.86345 -1.09839,-3.6363 -1.73733,-5.43139 -0.71954,-2.15896 -1.50722,-4.28275 -2.58197,-6.2952 -1.03778,-1.55667 1.16368,-3.02432 2.20147,-1.46765 z"
       inkscape:connector-curvature="0" />
    <path
       style="opacity:1;vector-effect:none;fill:#000000;fill-opacity:1;fill-rule:nonzero;stroke:none;stroke-width:1.06500006;stroke-linecap:round;stroke-linejoin:miter;stroke-miterlimit:4;stroke-dasharray:none;stroke-dashoffset:0;stroke-opacity:1;paint-order:stroke fill markers"
       id="path895"
       d="m 122.26667,122.59898 c -2.53753,0.41776 -5.09947,0.66981 -7.6563,0.93802 -2.64177,0.36248 -5.2697,0.82217 -7.91956,1.12401 -1.13144,0.10795 -2.2772,0.16109 -3.38723,0.42177 -0.68266,0.18746 -1.38671,0.27039 -2.08048,0.40427 -1.837592,0.35139 -2.334533,-2.24735 -0.49694,-2.59875 v 0 c 0.6676,-0.12667 1.34405,-0.20888 2.00074,-0.38775 1.20659,-0.26055 2.43576,-0.37529 3.6653,-0.46847 2.65758,-0.30097 5.29191,-0.77037 7.9422,-1.12648 2.53947,-0.26627 5.08381,-0.51679 7.6041,-0.93202 1.85644,-0.23205 2.18461,2.39335 0.32817,2.6254 z"
       inkscape:connector-curvature="0" />
    <path
       style="opacity:1;vector-effect:none;fill:#000000;fill-opacity:1;fill-rule:nonzero;stroke:none;stroke-width:1.06500006;stroke-linecap:round;stroke-linejoin:miter;stroke-miterlimit:4;stroke-dasharray:none;stroke-dashoffset:0;stroke-opacity:1;paint-order:stroke fill markers"
       id="path899"
       d="m 101.73466,124.56946 c -1.10469,2.62781 -2.136009,5.28447 -3.185543,7.93477 -1.345956,3.34372 -2.388991,6.80141 -3.480228,10.23472 -0.140713,0.41249 -0.281427,0.82497 -0.422138,1.23746 -0.604448,1.77055 -3.108388,0.91574 -2.503942,-0.85482 v 0 c 0.13485,-0.39469 0.2697,-0.78939 0.40455,-1.18409 1.109777,-3.49155 2.172454,-7.00716 3.541795,-10.40744 1.006605,-2.54186 1.968608,-5.10337 3.078668,-7.60231 0.453758,-1.81503 3.020598,-1.17332 2.566838,0.64171 z"
       inkscape:connector-curvature="0" />
    <path
       style="opacity:1;vector-effect:none;fill:#000000;fill-opacity:1;fill-rule:nonzero;stroke:none;stroke-width:1.06500006;stroke-linecap:round;stroke-linejoin:miter;stroke-miterlimit:4;stroke-dasharray:none;stroke-dashoffset:0;stroke-opacity:1;paint-order:stroke fill markers"
       id="path903"
       d="m 93.407065,144.90411 c -2.599375,0.59109 -5.303197,0.55943 -7.955251,0.6309 -3.290446,0.0744 -6.581823,0.0861 -9.872964,0.0905 -1.834965,0.0687 -3.683217,-0.10325 -5.515001,0.0385 -1.866197,0.13241 -2.053445,-2.50679 -0.187249,-2.63919 v 0 c 1.895489,-0.12548 3.800451,0.002 5.698675,-0.0452 3.268626,-0.004 6.537481,-0.0159 9.805419,-0.0896 2.431478,-0.0652 4.909002,-0.0332 7.299505,-0.53006 1.798902,-0.51397 2.525768,2.03006 0.726866,2.54404 z"
       inkscape:connector-curvature="0" />
    <path
       style="opacity:1;vector-effect:none;fill:#000000;fill-opacity:1;fill-rule:nonzero;stroke:none;stroke-width:1.06500006;stroke-linecap:round;stroke-linejoin:miter;stroke-miterlimit:4;stroke-dasharray:none;stroke-dashoffset:0;stroke-opacity:1;paint-order:stroke fill markers"
       id="path905"
       d="m 67.090773,143.55794 c 0.110937,-2.28739 -0.09954,-4.54252 -0.435618,-6.80132 -0.348601,-2.09518 -0.545801,-4.20896 -0.64739,-6.32919 -0.107918,-1.2849 0.02799,-2.58493 -0.09871,-3.86684 -0.06167,-0.55149 -0.120981,-1.10318 -0.177054,-1.65526 -0.188889,-1.86133 2.443424,-2.12846 2.632316,-0.26713 v 0 c 0.05725,0.56462 0.11871,1.12874 0.180599,1.69288 0.104966,1.32025 0.02548,2.64803 0.10569,3.97055 0.09606,2.03241 0.286774,4.05831 0.621703,6.0665 0.353544,2.38693 0.575209,4.77333 0.464296,7.18981 0,1.87089 -2.645834,1.87089 -2.645834,0 z"
       inkscape:connector-curvature="0" />
    <path
       style="opacity:1;vector-effect:none;fill:#000000;fill-opacity:1;fill-rule:nonzero;stroke:none;stroke-width:1.06500006;stroke-linecap:round;stroke-linejoin:miter;stroke-miterlimit:4;stroke-dasharray:none;stroke-dashoffset:0;stroke-opacity:1;paint-order:stroke fill markers"
       id="path911"
       d="m 66.454506,125.76225 c -2.213036,-0.8464 -4.449802,-1.6255 -6.6788,-2.42847 -1.766234,-0.75406 -3.584221,-1.36398 -5.391621,-2.00558 -1.382303,-0.52537 -2.802001,-0.93627 -4.212453,-1.37601 -1.786053,-0.55698 -0.998368,-3.08284 0.787686,-2.52586 v 0 c 1.443614,0.45031 2.896407,0.8721 4.311515,1.40906 1.809882,0.64528 3.633475,1.25113 5.401929,2.00927 2.208715,0.79635 4.426318,1.56602 6.618431,2.40753 1.774877,0.59163 0.938191,3.10168 -0.836687,2.51006 z"
       inkscape:connector-curvature="0" />
    <path
       style="opacity:1;vector-effect:none;fill:#000000;fill-opacity:1;fill-rule:nonzero;stroke:none;stroke-width:1.06500006;stroke-linecap:round;stroke-linejoin:miter;stroke-miterlimit:4;stroke-dasharray:none;stroke-dashoffset:0;stroke-opacity:1;paint-order:stroke fill markers"
       id="path915"
       d="m 48.434566,118.1356 c 0.696751,-1.55906 1.261819,-3.1601 1.734524,-4.80004 0.494279,-1.52915 0.802386,-3.10111 1.366308,-4.60744 0.434906,-1.09338 0.905068,-2.17092 1.250487,-3.29747 0.165111,-0.5755 0.426723,-1.11325 0.684861,-1.65064 0.81402,-1.68452 3.196283,-0.53332 2.382261,1.1512 v 0 c -0.203087,0.41713 -0.413671,0.83199 -0.539414,1.28119 -0.366303,1.17615 -0.840209,2.30938 -1.302682,3.44967 -0.547327,1.43706 -0.81031,2.95176 -1.30016,4.4086 -0.505711,1.74317 -1.104759,3.44848 -1.84428,5.10718 -0.736979,1.71961 -3.168883,0.67737 -2.431905,-1.04225 z"
       inkscape:connector-curvature="0" />
    <path
       style="opacity:1;vector-effect:none;fill:#000000;fill-opacity:1;fill-rule:nonzero;stroke:none;stroke-width:1.06500006;stroke-linecap:round;stroke-linejoin:miter;stroke-miterlimit:4;stroke-dasharray:none;stroke-dashoffset:0;stroke-opacity:1;paint-order:stroke fill markers"
       id="path919"
       d="m 54.994793,102.82612 c 1.374297,0.60675 2.744846,1.22838 4.100505,1.87738 1.203814,0.52925 2.360784,1.14622 3.561077,1.68302 0.720596,0.27111 0.350018,0.12837 1.111293,0.42936 1.739714,0.68819 0.766458,3.14852 -0.973254,2.46032 v 0 c -0.775761,-0.30704 -0.369819,-0.14855 -1.218237,-0.47439 -1.221595,-0.54635 -2.39921,-1.17272 -3.623781,-1.71206 -1.332831,-0.63866 -2.679996,-1.25111 -4.032176,-1.84584 -1.70964,-0.75984 -0.635064,-3.17763 1.074573,-2.41779 z"
       inkscape:connector-curvature="0" />
    <path
       style="opacity:1;vector-effect:none;fill:#aa0000;fill-opacity:1;fill-rule:nonzero;stroke:none;stroke-width:1.06500006;stroke-linecap:round;stroke-linejoin:miter;stroke-miterlimit:4;stroke-dasharray:none;stroke-dashoffset:0;stroke-opacity:1;paint-order:stroke fill markers"
       id="path923"
       d="m 93.565902,143.40445 c 3.2199,0.23336 6.425425,0.60859 9.621508,1.05866 3.09757,0.43874 6.2028,0.81362 9.30119,1.24673 1.59797,0.17719 3.18059,0.31049 4.69964,0.86174 2.01921,1.00155 2.24995,2.41205 2.12082,4.48377 -0.24,2.00802 -1.1117,3.86304 -1.82746,5.73413 -0.13742,0.30087 -0.27278,0.60268 -0.41227,0.90259 -0.10196,0.21921 -0.22925,0.42758 -0.31205,0.65472 -0.008,0.022 0.0729,0.0337 0.0696,0.0105 -0.13261,-0.93858 -0.47403,-1.20175 0.14291,-0.59578 0.0939,0.41606 0.2809,0.82166 0.28176,1.24819 0.002,0.89976 -1.65167,2.28763 -2.28692,2.81704 -0.9647,0.81306 -1.87685,1.68527 -2.78012,2.56523 -0.72353,0.75336 -1.27544,1.64329 -1.90127,2.47393 -0.36903,0.40722 -0.64308,0.78981 -1.20595,0.98768 -1.64842,0.57947 -3.44497,-0.30905 -4.96117,-0.87542 -2.57884,-0.9469 -5.180652,-1.81149 -7.846792,-2.47678 -2.996575,-0.57555 -5.920023,-1.47904 -8.870365,-2.25205 -1.577197,-0.43387 -3.18829,-0.70613 -4.807342,-0.92104 -1.854424,-0.24763 -1.504225,-2.87018 0.350203,-2.62255 v 0 c 1.726647,0.23183 3.44524,0.52204 5.127744,0.98415 2.941016,0.7706 5.854615,1.67248 8.842079,2.2448 2.762371,0.69314 5.461583,1.58191 8.133593,2.56614 0.96799,0.36468 1.15581,0.45502 2.10907,0.74376 0.19704,0.0597 0.41191,0.0684 0.59691,0.15876 0.0543,0.0265 -0.0406,0.28436 0.15414,0.14655 0.10589,-0.0749 0.17914,-0.18763 0.26871,-0.28144 0.71055,-0.93205 1.32606,-1.9417 2.16428,-2.77179 0.95598,-0.93108 1.92212,-1.85318 2.94417,-2.71221 0.43136,-0.3495 0.79758,-0.7049 1.16949,-1.11636 0.0591,-0.0654 0.0929,-0.18378 0.18054,-0.19351 0.0576,-0.006 -10e-4,0.1158 -0.002,0.1737 0.11252,0.28114 0.22505,0.56228 0.33757,0.84342 0.0443,0.0309 0.17443,0.12688 0.13279,0.0926 -0.58885,-0.48514 -0.69276,-0.36253 -0.9016,-1.53695 -0.13459,-0.75686 0.61129,-1.53636 0.81136,-2.20365 0.62301,-1.62663 1.3884,-3.23768 1.65882,-4.96928 0.0243,-0.31461 0.21106,-1.34013 -0.095,-1.62736 -0.0917,-0.0861 -0.21332,-0.13323 -0.31998,-0.19984 -1.31445,-0.5273 -2.74722,-0.50162 -4.13217,-0.71698 -3.09934,-0.43325 -6.20555,-0.80799 -9.30404,-1.24712 -3.160863,-0.44561 -6.331164,-0.81516 -9.515638,-1.04591 -1.861601,-0.18616 -1.598332,-2.81887 0.263271,-2.63271 z"
       inkscape:connector-curvature="0" />
    <path
       style="opacity:1;vector-effect:none;fill:#aa0000;fill-opacity:1;fill-rule:nonzero;stroke:none;stroke-width:1.06500006;stroke-linecap:round;stroke-linejoin:miter;stroke-miterlimit:4;stroke-dasharray:none;stroke-dashoffset:0;stroke-opacity:1;paint-order:stroke fill markers"
       id="path927"
       d="m 81.736866,161.52308 c -2.153595,1.84644 -4.513443,3.428 -6.903485,4.94746 -2.045861,1.23689 -4.115554,2.44032 -5.926082,4.01206 -0.836946,0.76707 -1.572302,1.80515 -2.814222,1.904 -0.878213,0.0699 -1.298141,-0.21374 -2.060739,-0.53909 -1.54029,-0.93215 -3.028984,-1.96467 -4.44704,-3.07596 -0.954799,-0.86358 -2.059469,-1.45718 -3.181225,-2.0599 -0.779222,-0.42941 -1.45383,-1.0465 -2.328929,-1.27222 -1.062924,-0.28093 -2.312948,-0.94371 -2.228961,-2.25567 0.02286,-0.35728 0.208029,-0.68513 0.312042,-1.02769 0.797041,-1.36775 2.039464,-2.38151 3.034831,-3.59135 0.947616,-1.34165 1.898029,-2.68092 2.839472,-4.02689 0.819827,-1.20393 1.787347,-2.29233 2.780945,-3.35316 0.950711,-0.99304 1.927246,-1.9609 2.900503,-2.93172 0.988351,-1.0471 2.086827,-1.97693 3.165456,-2.92746 0.148556,-0.13336 0.297111,-0.26671 0.445667,-0.40006 1.392349,-1.24963 3.159593,0.71945 1.767245,1.96908 v 0 c -0.154551,0.13869 -0.309105,0.27737 -0.463656,0.41606 -1.03781,0.91447 -2.096633,1.80672 -3.046172,2.81561 -0.952219,0.94984 -1.907646,1.89676 -2.838455,2.86771 -0.908167,0.96853 -1.795531,1.95976 -2.543434,3.06044 -0.983832,1.40655 -1.972138,2.80981 -2.97428,4.20337 -0.864814,1.02922 -1.864264,1.93908 -2.670812,3.01789 -0.28202,-0.921 -0.938414,-0.71575 0.27359,-0.37228 1.036034,0.32719 1.930519,0.87407 2.828033,1.47806 1.254043,0.67493 2.487009,1.35767 3.562233,2.30927 1.255843,0.98844 2.581331,1.88924 3.922848,2.75509 0.136731,0.0744 0.286575,0.12861 0.410191,0.22322 0.06161,0.0472 -0.03124,0.24561 0.04443,0.22848 0.686266,-0.15543 0.971312,-1.13807 1.582801,-1.41875 1.917714,-1.64383 4.066659,-2.95398 6.234536,-4.24115 2.271109,-1.44293 4.515326,-2.94189 6.564876,-4.69197 1.398318,-1.24295 3.156114,0.73457 1.757797,1.97752 z"
       inkscape:connector-curvature="0" />
    <path
       style="opacity:1;vector-effect:none;fill:#aa0000;fill-opacity:1;fill-rule:nonzero;stroke:none;stroke-width:1.06500006;stroke-linecap:round;stroke-linejoin:miter;stroke-miterlimit:4;stroke-dasharray:none;stroke-dashoffset:0;stroke-opacity:1;paint-order:stroke fill markers"
       id="path929"
       d="m 83.987938,120.08518 c -0.42626,2.30688 -1.485583,4.42618 -2.564284,6.48698 -0.65891,1.23432 -1.353327,2.44607 -1.708472,3.8076 0.332745,0.75561 0.835874,1.39216 1.373206,2.01545 0.303887,0.23491 0.588729,0.7248 1.01183,0.78948 0.04494,0.007 0.107706,-0.14834 0.134974,-0.17568 0.599223,-0.46522 1.174555,-0.95347 1.776588,-1.41622 0.308964,-0.39621 1.058634,-0.64241 1.261017,-1.07005 -0.546312,0.8449 0.447458,-0.77428 -0.198604,0.81487 -0.02315,0.0569 -0.09768,-0.0751 -0.141399,-0.11832 -0.114506,-0.11313 -0.226928,-0.22867 -0.332658,-0.35004 -0.459459,-0.52739 -0.46917,-0.57378 -0.86904,-1.14601 -0.669398,-1.00278 -0.973939,-2.13845 -1.108122,-3.32064 -0.11185,-0.86034 0.02127,-1.73672 -0.08625,-2.59466 -0.227179,-0.72312 -0.439857,-1.45013 -0.650944,-2.17788 -0.173157,-0.49618 -0.07694,-0.2565 -0.286533,-0.71988 -0.750978,-1.71355 1.672346,-2.77559 2.423324,-1.06204 v 0 c 0.303406,0.70656 0.169561,0.35633 0.40554,1.04913 0.251875,0.8807 0.545756,1.75072 0.741225,2.64648 0.07503,0.85665 0.02593,1.71495 0.08399,2.57306 0.0757,0.7458 0.239199,1.46473 0.65523,2.1034 0.265682,0.39166 0.307901,0.47854 0.623811,0.84159 0.645586,0.74192 1.179642,1.1995 1.162759,2.30413 -0.0037,0.24127 -0.171135,0.45123 -0.256701,0.67684 -0.501129,0.67213 -1.179206,1.11698 -1.81692,1.64983 -0.803434,0.61454 -1.534452,1.33504 -2.448029,1.79028 -0.23858,0.0757 -0.468873,0.18575 -0.71574,0.22704 -1.402527,0.23456 -2.487536,-0.62695 -3.378689,-1.59338 -1.097722,-1.28797 -2.077019,-2.63759 -1.919158,-4.42301 0.423246,-1.54458 1.145767,-2.9526 1.920113,-4.34926 0.955913,-1.82272 1.918541,-3.69296 2.30478,-5.73239 0.334674,-1.84071 2.93783,-1.36741 2.603156,0.4733 z"
       inkscape:connector-curvature="0" />
    <path
       style="opacity:1;vector-effect:none;fill:#502d16;fill-opacity:1;fill-rule:nonzero;stroke:none;stroke-width:1.06500006;stroke-linecap:round;stroke-linejoin:miter;stroke-miterlimit:4;stroke-dasharray:none;stroke-dashoffset:0;stroke-opacity:1;paint-order:stroke fill markers"
       id="path933"
       d="m 91.453961,123.31994 c 1.291981,-0.0368 2.575398,0.009 3.856125,0.18348 1.39024,0.24281 1.48605,0.9175 1.131982,2.39647 -0.09002,0.37602 -1.309896,0.73524 -1.618628,0.8276 -1.100391,0.27214 -2.150372,0.69751 -3.223686,1.05766 -0.269674,0.0795 -0.49,0.12621 -0.734406,0.24539 -0.02463,0.012 -0.08769,0.0658 -0.06484,0.0506 0.673346,-0.4466 0.718947,-1.408 0.16923,-2.0168 0.604086,0.31305 1.241697,0.56841 1.877599,0.81169 0.656561,0.30209 1.341874,0.49462 1.951146,0.8877 1.045046,0.93865 0.720559,2.07008 -0.404368,2.70346 -0.242281,0.13641 -0.713388,0.21174 -0.986006,0.26683 -0.828294,0.20753 -1.673218,0.32422 -2.517053,0.44512 0.911386,-0.0558 0.677495,-1.10454 0.757087,-1.73299 0.921594,1.62815 -1.380964,2.93148 -2.302558,1.30333 v 0 c 0.09337,-1.53512 -0.243951,-1.77074 1.170548,-2.18947 0.805127,-0.11515 1.610855,-0.22658 2.40093,-0.42586 0.233079,-0.0375 0.309761,-0.0531 0.298969,-0.0361 -0.07059,0.1112 -0.209008,0.17474 -0.263054,0.29485 -0.234628,0.52141 -0.250979,1.13848 0.288459,1.50995 0.02278,0.006 0.08356,0.0365 0.06831,0.0186 -0.103407,-0.122 -0.956508,-0.37352 -1.149498,-0.45674 -0.08997,-0.0388 -0.178546,-0.0808 -0.267819,-0.12117 -0.741143,-0.28922 -1.4864,-0.58421 -2.189543,-0.95637 -0.180973,-0.12638 -0.481738,-0.16706 -0.542917,-0.37915 -0.582145,-2.01814 0.08838,-2.28552 1.598482,-2.73138 1.115703,-0.37399 2.209546,-0.81162 3.352631,-1.09728 0.131614,-0.0311 0.361728,-0.091 0.363881,-0.0753 0.0063,0.046 -0.07779,0.0695 -0.07703,0.11593 0.0089,0.53824 -0.09233,1.11086 0.105558,1.61148 0.09138,0.23116 0.457118,0.20121 0.664901,0.33766 0.06213,0.0408 -0.145669,-0.0297 -0.218503,-0.0445 -1.161341,-0.1617 -2.324071,-0.19048 -3.495932,-0.15886 -1.870887,0 -1.870887,-2.64583 0,-2.64583 z"
       inkscape:connector-curvature="0" />
    <path
       style="opacity:1;vector-effect:none;fill:#deaa87;fill-opacity:1;fill-rule:nonzero;stroke:none;stroke-width:1.06500006;stroke-linecap:round;stroke-linejoin:miter;stroke-miterlimit:4;stroke-dasharray:none;stroke-dashoffset:0;stroke-opacity:1;paint-order:stroke fill markers"
       id="path935"
       d="m 120.22731,108.31962 c 1.21314,-2.40854 2.5666,-4.74458 3.86328,-7.10958 1.60217,-2.982214 3.28742,-5.916586 4.97717,-8.849421 0.72453,-1.1625 1.02702,-2.480342 1.14372,-3.827547 0.0242,-0.923385 0.0984,-1.862135 -0.0162,-2.781522 -0.16059,-0.688912 -0.55998,-1.313635 -0.57316,-2.03781 -0.004,-0.224539 0.0439,-0.447006 0.0658,-0.67051 0.20917,-0.31264 0.33214,-0.705001 0.62751,-0.937922 1.21353,-0.956937 2.82114,-0.111656 3.87911,0.594202 1.15799,0.949065 1.43181,2.30079 1.67786,3.693019 0.26778,1.001985 0.39268,2.144464 1.10834,2.94553 -0.64556,-1.051981 -1.09998,-0.06387 -1.6433,0.02669 -0.0905,0.01508 0.0174,-0.182666 0.0256,-0.274042 0.0186,-0.20629 0.0347,-0.412806 0.0549,-0.618953 0.0296,-0.302742 0.0628,-0.605115 0.0942,-0.907672 0.1586,-1.942597 0.32436,-3.882977 0.51625,-5.82273 0.15301,-1.563894 0.36308,-3.24017 1.09016,-4.662421 0.13139,-0.257009 0.3112,-0.486236 0.46679,-0.729353 0.34341,-0.207037 0.63181,-0.575805 1.03023,-0.621112 2.08071,-0.236607 2.77437,2.096807 3.23195,3.609882 0.37793,1.362842 0.43723,2.77871 0.46912,4.183848 0.0141,1.152684 0.003,2.305495 -0.002,3.458207 0.0247,0.590058 -0.19424,1.144633 -0.25774,1.723028 -0.007,0.06027 -0.001,0.12151 0.005,0.181816 0.001,0.0093 0.0201,0.03124 0.0161,0.02283 -0.12859,-0.27106 -0.26003,-0.540758 -0.39005,-0.811139 -0.33975,-0.102121 -0.6795,-0.204239 -1.01925,-0.306361 -0.0501,0.0026 -0.15099,0.05786 -0.15038,0.0077 0.001,-0.08134 0.10574,-0.123946 0.15261,-0.190428 0.0822,-0.116576 0.15487,-0.23958 0.23414,-0.358159 0.62261,-0.931301 0.20915,-0.272886 0.81748,-1.281181 0.84358,-1.632125 2.17671,-2.823033 3.65158,-3.865761 0.20398,-0.14107 0.41033,-0.27877 0.61194,-0.423211 0.0224,-0.01606 0.45159,-0.268537 0.51514,-0.445564 0.01,-0.0267 -0.0824,0.03984 -0.0614,0.05893 0.66734,0.60701 1.53129,1.025062 2.05817,1.75732 0.13727,0.19076 -0.23715,0.4058 -0.35574,0.608701 -0.88267,1.448009 -1.97965,2.745734 -2.93635,4.142692 -0.54851,1.044604 0.30865,0.03442 -0.55912,-0.808339 -0.79814,-0.775139 -1.80974,0.382672 -0.60315,-0.798015 1.11255,-1.11025 2.12484,-2.318467 3.38814,-3.261519 0.85206,-0.494353 1.65128,-0.88733 2.55781,0.167746 0.68712,0.799716 -0.13548,2.173502 -0.47553,2.886676 -1.00229,2.014929 -2.37479,3.774799 -4.02169,5.29587 -1.26633,1.01449 -2.6654,1.851187 -4.16648,2.463361 -0.58933,0.222568 -1.17139,0.464561 -1.72813,0.76023 -0.11082,0.05885 -0.22181,0.11784 -0.32801,0.184658 -0.0321,0.02021 -0.11261,0.101746 -0.0853,0.07539 0.0892,-0.08611 0.18073,-0.169817 0.2711,-0.254725 -0.33229,-3.110844 0.35068,-0.858679 -0.70578,-1.915379 -0.0492,-0.04925 0.13822,-0.01728 0.20751,-0.02426 0.14376,-0.01453 0.28772,-0.02705 0.4316,-0.04035 0.60476,-0.0559 0.39578,-0.03711 1.0089,-0.08782 0.90807,-0.164986 1.74229,-0.571389 2.63797,-0.790982 1.05402,-0.182348 2.12815,-0.131067 3.19256,-0.116488 0.88198,0.113061 1.83578,-0.139703 2.70517,0.09175 0.17991,0.04789 0.34709,0.1348 0.52064,0.2022 0.15117,0.647652 0.50312,1.279753 0.45349,1.94296 -0.0421,0.56211 -2.56426,1.244962 -3.05878,1.417299 -0.90363,0.364016 -1.86101,0.591926 -2.71656,1.068567 -0.36119,0.201229 -1.08131,0.674994 -1.41162,0.888267 -1.2307,0.74625 -2.37157,1.624761 -3.6776,2.238163 -0.93206,0.378474 -1.92146,0.481497 -2.91634,0.512213 -0.61385,0.08321 -1.21523,0.204051 -1.7919,0.433421 -0.0482,0.0335 -0.10169,0.0605 -0.14461,0.1006 -0.22812,0.21307 -0.46166,0.67522 -0.62066,0.90842 -0.47997,0.70397 -0.54778,0.8064 -1.04788,1.54721 -1.12337,1.55397 -2.14147,3.17685 -3.13852,4.81338 -0.84214,1.18661 -1.76828,2.29026 -2.54588,3.52207 -0.67839,1.13213 -1.61731,2.0358 -2.6386,2.8522 -0.0712,0.067 -0.14242,0.13403 -0.21363,0.20104 -1.37683,1.26671 -3.16823,-0.68041 -1.79141,-1.94713 v 0 c 0.11853,-0.10755 0.23705,-0.2151 0.35558,-0.32265 0.79293,-0.63026 1.53156,-1.3122 2.05112,-2.19645 0.77068,-1.21937 1.66359,-2.33092 2.52343,-3.48588 1.01867,-1.67135 2.05844,-3.32923 3.205,-4.91698 0.86849,-1.28646 1.63009,-2.832242 3.06982,-3.550472 0.8561,-0.31469 1.73941,-0.526894 2.65062,-0.603475 0.63879,-0.01746 1.2771,-0.05893 1.88663,-0.270531 1.20212,-0.537424 2.20895,-1.412531 3.35122,-2.058929 0.50237,-0.323401 1.16271,-0.762106 1.68753,-1.043594 0.95523,-0.512344 1.99614,-0.801658 3.00358,-1.187931 0.15227,-0.05307 1.27823,-0.446442 1.41911,-0.491435 0.1396,-0.04458 0.28024,-0.08732 0.42367,-0.117329 0.0189,-0.0039 0.0647,2.51e-4 0.0553,0.01709 -0.55739,1.000702 -0.55419,-0.549564 0.32823,2.061982 0.0932,0.02437 0.18536,0.05348 0.27971,0.07309 0.0243,0.0051 -0.0436,-0.02754 -0.0684,-0.02915 -0.14725,-0.0096 -0.29511,-0.0028 -0.44267,-0.0043 -0.53517,-0.0052 -0.63208,-0.0059 -1.1745,-0.01241 -0.2022,-0.0024 -0.40439,-0.0052 -0.60657,-0.0078 -0.8556,-0.01172 -1.71736,-0.05348 -2.56882,0.05069 -1.02091,0.195866 -1.94482,0.804209 -3.00764,0.848053 -0.62044,0.05119 -2.66551,0.390779 -3.04485,-0.165769 -0.34206,-0.501857 -0.24831,-1.189038 -0.37246,-1.783559 0.13973,-0.165627 0.2629,-0.346782 0.41919,-0.496885 0.69731,-0.669713 1.88425,-0.923674 2.72382,-1.344184 1.21378,-0.47516 2.32565,-1.174247 3.36383,-1.958504 1.41336,-1.281549 2.56616,-2.791134 3.42793,-4.498726 0.0968,-0.195379 0.19326,-0.390914 0.29036,-0.586137 0.0419,-0.08431 0.0579,-0.316648 0.12675,-0.25246 0.16647,0.155104 0.0832,0.5007 0.27353,0.625396 1.00976,0.661588 1.79716,0.160734 1.16061,0.455038 -1.19077,0.818364 -2.03377,2.051579 -3.09765,3.017411 -0.6966,0.672145 -1.60107,1.757233 -2.80255,1.034728 -1.22646,-0.737529 -0.50928,-2.040819 -0.0594,-2.824274 0.92455,-1.343623 1.97015,-2.600534 2.83588,-3.984646 0.70453,-1.193578 0.31279,-0.906656 2.7954,0.418886 0.10801,0.05767 -0.13521,0.205168 -0.21651,0.296722 -0.13678,0.15403 -0.28017,0.303228 -0.43594,0.438018 -0.22411,0.193918 -0.87898,0.636039 -1.10534,0.79254 -1.18387,0.830967 -2.25597,1.750079 -2.91306,3.074557 -0.44014,0.72305 -1.62872,2.891049 -2.57484,2.990267 -0.47078,0.04937 -0.93792,-0.128788 -1.40689,-0.193182 -0.18542,-0.316125 -0.41043,-0.612143 -0.55626,-0.948376 -0.22382,-0.516085 0.21379,-1.638448 0.22159,-2.220232 0.005,-1.12908 0.0155,-2.258256 0.002,-3.387312 -0.0257,-1.16966 -0.0592,-2.350799 -0.36,-3.488688 -0.17823,-0.612835 -0.15934,-0.600429 -0.39038,-1.189222 -0.15239,-0.38835 -0.25827,-0.54433 -0.20696,-0.563298 1.14458,-0.423138 0.39003,0.302707 1.04879,-0.487625 -0.80008,0.944732 -0.97872,2.946337 -1.10155,4.149421 -0.19237,1.944034 -0.35774,3.88869 -0.51755,5.835531 -0.0569,0.548061 -0.11117,2.13805 -0.38047,2.583362 -0.82316,1.361168 -1.6565,1.585148 -2.85705,0.559689 -0.91823,-1.217625 -1.3514,-2.641282 -1.63942,-4.127454 -0.1194,-0.67568 -0.15985,-1.411785 -0.58225,-1.98073 -0.30531,-0.230962 -0.2315,-0.196138 -0.58896,-0.3757 -0.2139,-0.10745 -0.33153,-0.122759 -0.29054,-0.177146 0.56547,-0.750404 0.10975,0.322307 0.48378,-0.791396 -0.0127,-0.03787 0.002,-0.111312 -0.038,-0.113609 -0.0226,-0.0013 -0.0378,0.08931 0.0729,0.399579 0.19444,0.545087 0.42669,1.074031 0.50223,1.655807 0.10635,1.096979 0.08,2.204014 0.0202,3.303744 -0.16356,1.725187 -0.56915,3.413652 -1.48611,4.908034 -1.68065,2.916489 -3.35655,5.834639 -4.94966,8.800475 -1.23646,2.25518 -2.50835,4.49128 -3.70592,6.7666 -0.65691,1.75176 -3.13428,0.82275 -2.47737,-0.92902 z"
       inkscape:connector-curvature="0" />
    <path
       style="opacity:1;vector-effect:none;fill:#deaa87;fill-opacity:1;fill-rule:nonzero;stroke:none;stroke-width:1.06500006;stroke-linecap:round;stroke-linejoin:miter;stroke-miterlimit:4;stroke-dasharray:none;stroke-dashoffset:0;stroke-opacity:1;paint-order:stroke fill markers"
       id="path937"
       d="m 51.286759,108.63086 c -1.505731,-1.36944 -2.679301,-3.00487 -3.774046,-4.70439 -0.865799,-1.60156 -1.847122,-3.12363 -2.839781,-4.647111 -0.610468,-1.000942 -1.378304,-1.89277 -2.009404,-2.875946 -0.762553,-1.581441 -0.363244,-3.225872 -0.09403,-4.866817 0.08249,-1.10385 0.427244,-2.130542 0.783749,-3.166991 0.03191,-0.11061 0.06314,-0.221417 0.09574,-0.331828 0.248907,-0.843052 -0.04777,-0.236275 1.617199,1.232064 0.09049,0.07981 0.153765,-0.107304 0.07396,0.0619 -0.661252,0.936469 -1.582801,1.588217 -2.550446,2.174621 -0.277712,0.08201 -0.545515,0.279561 -0.833139,0.246033 -0.509209,-0.05935 -1.011647,-0.24665 -1.450176,-0.512185 -0.805648,-0.487836 -2.348343,-3.07517 -2.899412,-3.929904 -1.082665,-1.58396 -1.810877,-3.334647 -2.306654,-5.176666 -0.217463,-0.614407 -0.30077,-1.342588 -0.684794,-1.89058 -0.0164,-0.02339 0.0026,0.06555 0.02619,0.08161 0.237341,0.161387 0.493569,0.293078 0.740351,0.439618 0.424297,-0.193268 0.848593,-0.386532 1.27289,-0.5798 0.02148,-0.01767 0.06035,-0.08053 0.06446,-0.05301 0.04752,0.31808 -0.02947,0.642609 -0.03608,0.964152 -0.01979,0.962128 -0.01558,0.653254 0.0283,1.693183 -0.02905,2.102403 0.472991,4.128058 0.894348,6.169797 0.380256,1.704036 1.171641,3.979871 -1.4922,4.310333 -0.404178,0.05014 -0.753354,-0.309767 -1.130028,-0.464648 -1.274849,-0.942848 -2.179412,-2.280666 -3.519217,-3.140094 -0.910945,-0.484841 -1.891549,-0.818139 -2.814971,-1.279509 -0.657603,-0.354661 -1.334577,-0.643705 -2.06331,-0.809643 -0.947011,-0.161222 -1.953115,-0.326525 -2.730188,-0.940819 -0.171956,-0.135935 -0.307754,-0.312214 -0.461631,-0.468321 -0.109166,-0.330446 -0.465511,-0.671861 -0.327498,-0.991338 0.260049,-0.601966 0.746581,-1.202182 1.366916,-1.414724 0.891532,-0.305459 2.995908,1.956792 3.572048,2.515724 1.2529,1.161217 2.436477,2.374697 3.526814,3.689184 1.185873,1.803212 0.4132,3.002036 -1.526966,3.419464 -1.298686,0.185298 -2.59507,0.06104 -3.882007,-0.139761 -0.934803,-0.212987 -3.25223,-0.88574 -3.802656,-1.709044 -0.203238,-0.303993 -0.277936,-0.676479 -0.416904,-1.01472 0.501138,-0.466658 0.902782,-1.071118 1.503416,-1.399979 0.207399,-0.113554 2.625863,0.887048 3.024956,1.037032 1.421606,0.462926 2.528414,1.446546 3.653237,2.384192 0.871776,0.762199 1.920404,1.266269 2.836974,1.961928 0.852461,0.954143 0.896794,1.628206 -0.07587,2.62315 -0.354658,0.362781 -1.183939,0.391954 -1.655114,0.445797 -1.036265,0.150177 -2.059557,0.366527 -3.095088,0.520523 -1.234025,0.242183 -2.473518,0.439798 -3.723882,0.572529 -1.167648,0.12837 -0.769584,0.314703 -0.18095,-2.561013 0.0032,-0.01577 1.051951,0.01241 1.11668,0.01251 1.114023,0.0084 2.22237,0.01596 3.330101,-0.108831 1.072012,-0.136903 2.149035,-0.215669 3.228586,-0.255563 0.868426,0.02336 1.712542,-0.216964 2.524892,-0.503341 0.682019,-0.268721 1.384858,-0.77774 2.147027,-0.781725 0.287161,-0.0016 0.570286,0.06801 0.85543,0.10201 1.192395,0.494808 2.062954,1.461284 2.983794,2.328852 0.985536,0.931379 1.955016,1.879492 2.92001,2.832066 0.895022,0.893109 1.602669,1.937159 2.307913,2.979099 0.738148,0.79654 1.335648,1.6611 1.815092,2.63419 0.504301,1.06134 1.160682,2.03133 1.624155,3.11276 0.301323,0.81106 0.296217,1.72477 0.823664,2.4388 0.54959,0.44051 0.937059,1.03057 1.276747,1.63768 0.145558,0.20236 0.194278,0.45366 0.343347,0.65225 0.959464,1.60613 -1.311944,2.96301 -2.271408,1.35689 v 0 c -0.135771,-0.23987 -0.253897,-0.475 -0.381186,-0.71771 -0.315116,-0.56377 -0.730617,-1.02096 -1.185431,-1.48646 -0.548896,-0.88778 -0.856623,-1.83028 -1.043932,-2.85402 -0.428757,-1.044 -1.114814,-1.95124 -1.566645,-2.98575 -0.411853,-0.86948 -0.999742,-1.57762 -1.625521,-2.30558 -0.607925,-0.89818 -1.207524,-1.8055 -1.975543,-2.5792 -0.950346,-0.93815 -1.905074,-1.871948 -2.875619,-2.789256 -0.413522,-0.389604 -0.812951,-0.804455 -1.237427,-1.181499 -0.190145,-0.168897 -0.425521,-0.284424 -0.605835,-0.46378 -0.01228,-0.01222 0.01902,-0.02893 0.02855,-0.04339 0.07371,-0.01918 0.154996,-0.01974 0.221131,-0.0575 0.03587,-0.02048 -0.08377,-0.0077 -0.123928,0.0019 -0.56328,0.136149 -1.055762,0.477512 -1.596409,0.672158 -1.06059,0.356724 -2.156719,0.666654 -3.28595,0.644535 -1.01432,0.03685 -2.026065,0.111948 -3.033213,0.241144 -1.206841,0.132596 -2.413875,0.139015 -3.627213,0.125021 -0.101175,-1.96e-4 -1.245172,0.04723 -1.266281,-0.01704 -0.885499,-2.695406 -1.22482,-2.56603 0.05646,-2.7114 1.214535,-0.128558 2.417164,-0.326586 3.616297,-0.55889 1.07079,-0.156831 2.127723,-0.389165 3.200691,-0.533953 0.09561,-0.009 0.191265,-0.01749 0.286821,-0.02703 0.05737,-0.0057 0.130538,-0.05887 0.171932,-0.01873 0.03188,0.0309 -0.07045,0.05858 -0.08942,0.09873 -0.132323,0.280131 -0.333547,0.547653 -0.361648,0.856187 -0.04529,0.49726 0.116811,0.563409 0.375467,0.737901 -0.902478,-0.747781 -2.051248,-1.186375 -2.902474,-2.014791 -0.897313,-0.748139 -1.753714,-1.571884 -2.890797,-1.94011 -0.572475,-0.215699 -1.148674,-0.415343 -1.712687,-0.652706 -0.135327,-0.05695 -0.473739,-0.09821 -0.384528,-0.214823 0.366,-0.478412 0.761292,-0.933686 1.141939,-1.40053 -0.133763,-0.249356 -0.256687,-0.504838 -0.401289,-0.74807 -0.01115,-0.01876 -0.02284,0.05332 -0.0046,0.06533 0.168073,0.110681 0.352312,0.195003 0.533357,0.282874 0.286023,0.138819 0.914891,0.41678 1.23666,0.515456 0.205667,0.06307 0.41853,0.09971 0.627795,0.149558 0.994536,0.160153 1.991711,0.270127 2.998718,0.149236 0.05218,-0.0024 0.109043,-0.02875 0.15653,-0.007 0.04322,0.01979 -0.155932,0.153357 -0.210108,0.378534 -0.12006,0.499006 0.269211,1.023707 0.01347,0.501718 -1.029287,-1.241642 -2.148636,-2.383742 -3.333024,-3.479606 -0.552397,-0.536581 -0.80909,-0.795764 -1.366024,-1.301197 -0.150884,-0.13693 -0.454392,-0.198647 -0.460199,-0.402321 -0.0043,-0.151542 0.341801,0.02193 0.446221,-0.08797 1.195033,-1.257842 1.121088,-0.982678 0.621083,-1.937604 -0.490501,0.02318 0.786692,0.371149 1.294837,0.465873 0.165238,0.0308 0.33084,0.05962 0.496258,0.08943 0.929407,0.225248 1.810866,0.568402 2.652252,1.025314 1.004374,0.522515 2.110915,0.831355 3.07685,1.431938 1.259261,0.849286 2.283952,1.944965 3.337864,3.030313 -0.161192,0.572074 0.08022,-0.19113 -0.965165,0.974296 -0.03204,0.03572 0.04482,0.178295 0.05747,0.132001 0.185817,-0.680395 -0.311822,-1.442861 -0.339735,-2.100911 -0.450046,-2.182315 -0.969119,-4.352729 -0.946785,-6.598346 -0.03306,-0.863444 -0.05282,-1.718479 -0.0067,-2.581838 0.01095,-0.205201 0.06027,-1.134505 0.21463,-1.286209 0.399026,-0.392149 0.948979,-0.592833 1.423469,-0.889249 0.317042,0.155025 0.661308,0.263695 0.951127,0.465074 0.62267,0.432666 0.964681,2.17415 1.205532,2.846126 0.420907,1.578385 1.039254,3.074834 1.974762,4.427918 0.606359,0.940594 1.199304,1.8766 1.871226,2.771852 0.107212,0.142846 0.409146,0.268854 0.324691,0.426228 -0.555132,1.034447 -0.622358,-0.233267 -0.593727,0.160142 0.789622,-0.461701 1.471663,-0.979848 2.000721,-1.737725 0.104799,-0.1 0.792866,-0.819389 0.993799,-0.736696 2.244288,0.923618 2.050915,1.061376 1.627251,2.47123 -0.309875,0.89757 -0.620279,1.770959 -0.674288,2.733392 -0.165444,1.007721 -0.469268,2.033098 -0.263504,3.051691 0.531566,0.948462 1.450255,1.838692 1.97299,2.818439 0.994592,1.527265 1.982446,3.051661 2.847152,4.658491 0.99296,1.5416 2.04566,3.03059 3.420602,4.26626 1.322917,1.32292 -0.547971,3.1938 -1.870887,1.87089 z"
       inkscape:connector-curvature="0" />
    <path
       style="opacity:1;vector-effect:none;fill:#deaa87;fill-opacity:1;fill-rule:nonzero;stroke:none;stroke-width:1.06500006;stroke-linecap:round;stroke-linejoin:miter;stroke-miterlimit:4;stroke-dasharray:none;stroke-dashoffset:0;stroke-opacity:1;paint-order:stroke fill markers"
       id="path943"
       d="m 118.52343,154.66914 c 1.24875,0.71757 2.60881,1.2136 3.9547,1.71475 1.22265,0.3381 2.43561,0.66794 3.63869,1.07913 1.29293,0.39543 2.65314,1.11766 3.02699,2.53479 0.0771,0.2922 0.0589,0.60152 0.0883,0.90228 -0.15852,1.89625 -0.79078,3.73426 -1.42143,5.51915 -0.83442,2.29662 -2.08704,4.40398 -3.05539,6.64217 -0.60583,1.60325 -1.18396,3.21675 -1.92513,4.76382 -0.81163,1.68566 -3.19553,0.53785 -2.3839,-1.14782 v 0 c 0.73265,-1.51266 1.27375,-3.10422 1.88173,-4.66892 0.94864,-2.18179 2.15459,-4.24379 2.98946,-6.47484 0.52914,-1.48085 1.03216,-2.99938 1.26993,-4.5573 0.0321,-0.0565 0.13174,-0.0888 0.12091,-0.1528 -0.0929,-0.54898 -1.10019,-0.70054 -1.44715,-0.85689 -1.22673,-0.41928 -2.46396,-0.74252 -3.70714,-1.10358 -1.47979,-0.5522 -2.97144,-1.1046 -4.34324,-1.89671 -1.62438,-0.92822 -0.31168,-3.22545 1.3127,-2.29723 z"
       inkscape:connector-curvature="0" />
    <path
       style="opacity:1;vector-effect:none;fill:#deaa87;fill-opacity:1;fill-rule:nonzero;stroke:none;stroke-width:1.06500006;stroke-linecap:round;stroke-linejoin:miter;stroke-miterlimit:4;stroke-dasharray:none;stroke-dashoffset:0;stroke-opacity:1;paint-order:stroke fill markers"
       id="path949"
       d="m 112.40674,161.55096 c 1.40866,0.3766 2.80935,0.7914 4.19844,1.23505 1.78153,0.57129 0.9736,3.09075 -0.80793,2.51946 v 0 c -1.23284,-0.39718 -2.48441,-0.7364 -3.71869,-1.12911 -1.85644,-0.23205 -1.52826,-2.85745 0.32818,-2.6254 z"
       inkscape:connector-curvature="0" />
    <path
       style="opacity:1;vector-effect:none;fill:#deaa87;fill-opacity:1;fill-rule:nonzero;stroke:none;stroke-width:1.06500006;stroke-linecap:round;stroke-linejoin:miter;stroke-miterlimit:4;stroke-dasharray:none;stroke-dashoffset:0;stroke-opacity:1;paint-order:stroke fill markers"
       id="path953"
       d="m 117.73958,165.16046 c -0.013,2.15724 0.0383,4.31513 -0.0463,6.47104 -0.0863,1.58287 -0.45476,3.11722 -0.80244,4.65541 -0.12787,0.87639 -0.38306,1.72722 -0.52195,2.60099 -0.0801,0.62077 -0.10113,1.2466 -0.1238,1.8714 -0.0684,1.86964 -2.71244,1.77295 -2.64407,-0.0967 v 0 c 0.0271,-0.73585 0.0546,-1.47296 0.15696,-2.20316 0.15526,-0.92508 0.40732,-1.82912 0.55226,-2.75646 0.31286,-1.38127 0.65359,-2.75647 0.73933,-4.1776 0.0872,-2.12032 0.0272,-4.24321 0.0442,-6.36493 0,-1.87089 2.64583,-1.87089 2.64583,0 z"
       inkscape:connector-curvature="0" />
    <path
       style="opacity:1;vector-effect:none;fill:#deaa87;fill-opacity:1;fill-rule:nonzero;stroke:none;stroke-width:1.06500006;stroke-linecap:round;stroke-linejoin:miter;stroke-miterlimit:4;stroke-dasharray:none;stroke-dashoffset:0;stroke-opacity:1;paint-order:stroke fill markers"
       id="path957"
       d="m 54.752933,166.67987 c -0.845741,1.74047 -2.093347,3.23683 -3.353002,4.68937 -0.599516,0.65233 -1.249981,1.25371 -1.900295,1.85414 -1.375053,1.26863 -3.169179,-0.67599 -1.794127,-1.94463 v 0 c 0.579073,-0.53383 1.158614,-1.06807 1.696586,-1.64418 1.082434,-1.24498 2.162587,-2.52033 2.918933,-3.99695 0.736978,-1.71961 3.168883,-0.67737 2.431905,1.04225 z"
       inkscape:connector-curvature="0" />
    <path
       style="opacity:1;vector-effect:none;fill:#deaa87;fill-opacity:1;fill-rule:nonzero;stroke:none;stroke-width:1.06500006;stroke-linecap:round;stroke-linejoin:miter;stroke-miterlimit:4;stroke-dasharray:none;stroke-dashoffset:0;stroke-opacity:1;paint-order:stroke fill markers"
       id="path959"
       d="m 49.22208,172.67402 c 1.878912,1.47125 3.759031,2.9417 5.593154,4.46882 1.630841,1.26894 3.305738,2.47327 5.091007,3.51457 1.308896,0.76761 2.645833,1.48481 3.974599,2.21697 1.013921,0.64091 2.007791,1.31691 3.096771,1.82699 0.996646,0.40046 1.867067,0.96653 2.62555,1.72175 1.311159,1.33457 -0.576207,3.18883 -1.887368,1.85426 v 0 c -0.523565,-0.55551 -1.173871,-0.89648 -1.87766,-1.18812 -1.128655,-0.54585 -2.190695,-1.20677 -3.235161,-1.8981 -1.347333,-0.74384 -2.704576,-1.46955 -4.031734,-2.24941 -1.90948,-1.11792 -3.707546,-2.40128 -5.449171,-3.76578 -1.811184,-1.50866 -3.668836,-2.96012 -5.524373,-4.41345 -1.476787,-1.14861 0.147598,-3.23711 1.624386,-2.0885 z"
       inkscape:connector-curvature="0" />
    <path
       style="opacity:1;vector-effect:none;fill:#deaa87;fill-opacity:1;fill-rule:nonzero;stroke:none;stroke-width:1.06500006;stroke-linecap:round;stroke-linejoin:miter;stroke-miterlimit:4;stroke-dasharray:none;stroke-dashoffset:0;stroke-opacity:1;paint-order:stroke fill markers"
       id="path961"
       d="m 62.621889,170.2476 c 1.062265,1.8692 2.208861,3.69112 3.399666,5.48088 1.1171,1.5004 2.139476,3.0609 3.158786,4.62759 0.845582,1.261 1.938827,2.32621 3.083571,3.3127 0.826651,0.64213 1.505183,1.44345 2.265762,2.15655 1.360575,1.28415 -0.455491,3.2083 -1.816068,1.92414 v 0 c -0.728224,-0.69093 -1.388092,-1.45467 -2.178844,-2.07807 -1.33128,-1.15149 -2.593512,-2.40065 -3.57264,-3.87313 -1.013409,-1.55972 -2.033272,-3.11059 -3.143723,-4.60467 -1.271873,-1.91352 -2.506806,-3.8577 -3.614304,-5.87142 -0.759838,-1.70963 1.657953,-2.78421 2.417794,-1.07457 z"
       inkscape:connector-curvature="0" />
    <path
       style="opacity:1;vector-effect:none;fill:#333333;fill-opacity:1;fill-rule:nonzero;stroke:none;stroke-width:1.06500006;stroke-linecap:round;stroke-linejoin:miter;stroke-miterlimit:4;stroke-dasharray:none;stroke-dashoffset:0;stroke-opacity:1;paint-order:stroke fill markers"
       id="path967"
       d="m 115.31167,175.85863 c 0.28188,-0.0282 0.56357,-0.11089 0.84564,-0.0847 2.32588,0.21598 4.44529,1.33919 6.37333,2.57601 1.44332,1.01042 2.77437,2.15494 3.98959,3.42793 0.17529,0.20594 0.35704,0.40655 0.52586,0.61784 0.55155,0.69029 0.39445,0.57753 0.93339,1.21104 0.38902,0.45729 0.83322,0.86997 1.24421,1.30727 0.70731,0.86504 1.5687,1.56727 2.43341,2.26589 0.88237,0.74591 2.09579,1.59042 2.16684,2.87453 0.0165,0.29886 -0.0883,0.59209 -0.13244,0.88814 -0.46629,1.07186 -1.42775,1.18625 -2.38266,1.567 -0.28638,0.11419 -0.69819,0.36814 -0.94722,0.51203 -1.26123,0.8417 -2.45925,1.77144 -3.76437,2.54721 -1.00351,0.57332 -2.07929,0.91431 -3.22123,1.04903 -1.02034,0.10054 -2.0168,-0.27479 -2.98414,-0.55917 -1.50365,-0.32381 -2.77227,-1.16541 -3.96834,-2.09098 -1.05622,-0.87765 -2.12802,-1.73338 -3.14994,-2.65136 -0.8864,-0.71958 -1.80345,-1.37688 -2.57414,-2.22491 -0.85218,-1.02456 -0.86245,-2.34823 -0.9059,-3.61346 -0.0216,-1.07662 -0.007,-2.15354 -8e-4,-3.23024 0.10675,-1.21044 0.19969,-2.42348 0.52272,-3.59764 0.41442,-1.26406 1.33475,-2.17562 2.41387,-2.89812 0.63874,-0.3871 1.36612,-0.50592 2.10164,-0.44432 0.34956,0.0293 0.25495,0.13518 0.34599,0.0149 0.50979,-0.12325 1.03565,-0.0916 1.55357,-0.0627 1.86679,0.12369 1.69187,2.76374 -0.17492,2.64005 v 0 c -0.42924,-0.0369 -0.83695,-0.0442 -1.26391,0.066 -0.19656,-0.002 -0.39318,5.3e-4 -0.58968,-0.005 -0.0419,-0.001 -0.29468,-0.0778 -0.33731,-0.0692 -0.0694,0.014 -0.13108,0.0537 -0.19663,0.0805 -0.55785,0.33667 -1.06711,0.79202 -1.30993,1.40923 -0.28894,0.9319 -0.28718,1.92101 -0.41962,2.88265 -0.007,1.04169 -0.02,2.08357 -8e-4,3.12519 0.0202,0.62349 -0.0483,1.3651 0.22888,1.93275 0.69642,0.78673 1.59018,1.33445 2.37556,2.02636 0.97503,0.87706 2.00008,1.69175 3.00682,2.53157 0.93337,0.73256 1.9072,1.40564 3.09426,1.64165 0.62813,0.18786 1.28799,0.46091 1.93828,0.46661 0.77351,-0.0792 1.49138,-0.31757 2.17308,-0.69958 1.32396,-0.76994 2.50417,-1.75255 3.79906,-2.56728 0.26814,-0.15063 1.9758,-1.07184 2.27606,-0.98618 0.1445,0.0412 -0.54714,0.42432 -0.16436,0.4198 0.0311,0.21586 0.0803,0.70147 0.15937,0.43077 0.0743,-0.25446 -1.16699,-1.21037 -1.33088,-1.34823 -0.95841,-0.77475 -1.90959,-1.56081 -2.69995,-2.51345 -0.94157,-1.00572 -1.87764,-2.00435 -2.68949,-3.12137 -1.06967,-1.12529 -2.24422,-2.13221 -3.51155,-3.03176 -0.86118,-0.56351 -1.76433,-1.11979 -2.72288,-1.50643 -0.39707,-0.16016 -0.81283,-0.26938 -1.21897,-0.40492 -0.24951,-0.0833 -0.48585,-0.22936 -0.74795,-0.25149 -0.36397,-0.0307 -0.72772,0.0641 -1.09158,0.0961 -1.87088,0 -1.87088,-2.64584 0,-2.64584 z"
       inkscape:connector-curvature="0" />
    <path
       style="opacity:1;vector-effect:none;fill:#333333;fill-opacity:1;fill-rule:nonzero;stroke:none;stroke-width:1.06500006;stroke-linecap:round;stroke-linejoin:miter;stroke-miterlimit:4;stroke-dasharray:none;stroke-dashoffset:0;stroke-opacity:1;paint-order:stroke fill markers"
       id="path969"
       d="m 70.756012,183.77578 c -1.020969,0.65023 -2.052616,1.3134 -2.901299,2.18372 -0.719241,0.96094 -0.746123,1.5972 -0.667838,2.72995 0.173877,1.10043 -0.01503,2.18536 -0.223898,3.26358 -0.448612,1.16318 -1.014045,2.27809 -1.509228,3.42502 -0.276053,0.73227 -0.435449,1.48802 -0.850773,2.16297 -0.129524,0.2105 -0.521052,0.70323 -0.696426,0.92781 -0.507616,0.77373 -1.266989,1.28421 -1.960256,1.8683 -0.677719,0.53548 -1.213686,1.10171 -1.454713,1.93696 -0.230418,-0.35678 -0.008,1.18323 0.01963,0.91261 -0.04062,-0.20825 -0.0438,-0.11805 -0.02053,-0.26999 1.054934,0.18669 2.134727,0.17383 3.202594,0.17928 1.628584,-0.005 3.25715,-0.0134 4.885737,-0.0175 1.191094,-0.0776 2.579219,0.0304 3.513394,-0.83757 1.086962,-0.98546 2.085145,-2.05194 3.022013,-3.18126 1.09316,-1.37931 1.948302,-2.94385 2.817799,-4.47219 0.457155,-0.83646 1.005922,-1.6239 1.378776,-2.50508 0.08642,-0.20424 0.318743,-0.68571 0.168375,-0.93512 -0.02535,0.0316 -0.04199,0.11676 -0.07606,0.0948 -0.109016,-0.0702 -0.161253,-0.20313 -0.245414,-0.30175 -0.114991,-0.13475 -0.232239,-0.26762 -0.351923,-0.39822 -0.368736,-0.40238 -0.76205,-0.74879 -1.178229,-1.10017 -0.96188,-0.84487 -1.980094,-1.62088 -2.963259,-2.44023 -0.656471,-0.5724 -1.423697,-0.92325 -2.225249,-1.2292 -0.772036,-0.25537 -1.368534,-0.77335 -1.961502,-1.30542 -1.391679,-1.25038 0.376619,-3.21851 1.7683,-1.96813 v 0 c 0.358831,0.32286 0.656363,0.65685 1.136817,0.8017 1.074827,0.41036 2.093235,0.91446 2.975999,1.66892 0.988036,0.82424 2.012495,1.60363 2.979126,2.45356 1.148763,0.97597 2.287865,2.02743 2.777247,3.49451 0.0075,0.25973 0.04434,0.52028 0.02249,0.77921 -0.131611,1.55905 -1.210423,2.86576 -1.906045,4.19942 -0.946994,1.66295 -1.883709,3.35999 -3.082917,4.85512 -1.052364,1.26273 -2.172909,2.45587 -3.398819,3.55181 -0.219699,0.16647 -0.425585,0.35295 -0.659095,0.49943 -1.333654,0.83654 -2.989152,0.84639 -4.505151,0.92166 -1.635437,0.004 -3.27085,0.0131 -4.906285,0.0175 -1.413494,-0.008 -2.861307,0.0245 -4.22661,-0.39131 -0.275841,-0.15041 -0.584957,-0.25154 -0.827529,-0.45122 -1.043004,-0.85856 -0.940792,-2.29008 -0.645517,-3.45639 0.466627,-1.32727 1.165907,-2.27079 2.27481,-3.14003 0.556625,-0.45863 1.164035,-0.84746 1.567149,-1.46302 0.183313,-0.23446 0.494686,-0.52544 0.619278,-0.80579 0.243753,-0.54847 0.311785,-1.1665 0.583999,-1.70543 0.420537,-0.97245 0.829305,-1.94895 1.340517,-2.8789 0.167007,-0.86165 0.341127,-1.71383 0.180752,-2.59491 -0.111725,-1.9297 0.17815,-3.24635 1.44525,-4.77378 0.974061,-0.94575 2.064636,-1.75496 3.226689,-2.45824 1.522404,-1.08743 3.060263,1.06558 1.537859,2.15301 z"
       inkscape:connector-curvature="0" />
    <path
       style="opacity:1;vector-effect:none;fill:#333333;fill-opacity:1;fill-rule:nonzero;stroke:none;stroke-width:1.06500006;stroke-linecap:round;stroke-linejoin:miter;stroke-miterlimit:4;stroke-dasharray:none;stroke-dashoffset:0;stroke-opacity:1;paint-order:stroke fill markers"
       id="path971"
       d="m 116.11284,166.03125 c 1.52319,-0.0215 3.04893,0.0486 4.57004,-0.043 1.23297,-0.0953 2.45901,-0.279 3.69715,-0.24619 0.18247,0.0164 0.36495,0.0327 0.54743,0.049 1.86283,0.17342 1.61758,2.80786 -0.24525,2.63444 v 0 c -0.13503,-0.0132 -0.27005,-0.0264 -0.40508,-0.0396 -1.14897,-0.0708 -2.29622,0.2072 -3.44305,0.24387 -1.57219,0.0861 -3.14715,0.0343 -4.72124,0.0474 -1.87089,0 -1.87089,-2.64583 0,-2.64583 z"
       inkscape:connector-curvature="0" />
    <path
       style="opacity:1;vector-effect:none;fill:#333333;fill-opacity:1;fill-rule:nonzero;stroke:none;stroke-width:1.06500006;stroke-linecap:round;stroke-linejoin:miter;stroke-miterlimit:4;stroke-dasharray:none;stroke-dashoffset:0;stroke-opacity:1;paint-order:stroke fill markers"
       id="path973"
       d="m 55.528223,178.70919 c 0.950759,-1.11288 1.945182,-2.18725 2.952022,-3.24928 0.924457,-1.11426 2.128689,-1.80409 3.445692,-2.34872 0.553527,-0.22084 0.315312,-0.11727 0.718881,-0.30077 1.706499,-0.76686 2.791005,1.6465 1.084506,2.41336 v 0 c -0.50166,0.22355 -0.234553,0.11016 -0.802777,0.33674 -0.982658,0.39487 -1.850597,0.87492 -2.526292,1.71983 -0.968108,1.02094 -1.924344,2.05363 -2.839448,3.12266 -1.197713,1.43726 -3.230298,-0.25656 -2.032584,-1.69382 z"
       inkscape:connector-curvature="0" />
    <path
       style="opacity:1;vector-effect:none;fill:#000000;fill-opacity:1;fill-rule:nonzero;stroke:none;stroke-width:1.06500006;stroke-linecap:round;stroke-linejoin:miter;stroke-miterlimit:4;stroke-dasharray:none;stroke-dashoffset:0;stroke-opacity:1;paint-order:stroke fill markers"
       id="path977"
       d="m 79.941964,142.76943 c -0.0026,1.35101 -0.03663,2.69888 0.100984,4.04424 -0.0075,0.0498 0.311927,0.55378 0.214246,0.31262 -0.116255,-0.28701 -0.29336,-0.21928 0.174305,-0.29287 0.842333,-0.12203 1.649756,-0.41924 2.42081,-0.77204 0.377608,-0.21876 0.416883,-0.24331 0.460277,-0.59777 -5.29e-4,-0.49646 0.154176,-1.05661 0.01672,-1.54183 -0.201239,-0.59577 -0.168645,-1.24663 -0.332727,-1.84572 -0.112527,-0.043 -0.573106,-0.24014 0.216922,0.3082 0.445158,0.30898 0.776205,0.0561 -0.158713,0.40286 -0.723064,0.34745 -1.465162,0.6381 -2.228509,0.88203 -1.785289,0.55942 -2.576436,-1.96536 -0.791144,-2.52478 v 0 c 0.727284,-0.22151 1.417241,-0.53075 2.11043,-0.84196 1.650574,-0.59779 2.755795,-0.6836 3.433848,1.1997 0.136601,0.6721 0.185647,1.35822 0.365805,2.0229 0.102375,0.83808 0.08004,1.68989 -0.05257,2.52483 -0.300895,1.18016 -0.866793,1.86808 -1.954572,2.42432 -1.020921,0.45402 -2.08126,0.84125 -3.195066,0.98669 -2.001422,0.20124 -2.876913,-0.44713 -3.332628,-2.38246 -0.142081,-1.43389 -0.124053,-2.86928 -0.114261,-4.30896 0,-1.87088 2.645834,-1.87088 2.645834,0 z"
       inkscape:connector-curvature="0" />
    <path
       style="opacity:1;vector-effect:none;fill:#000000;fill-opacity:1;fill-rule:nonzero;stroke:none;stroke-width:1.06500006;stroke-linecap:round;stroke-linejoin:miter;stroke-miterlimit:4;stroke-dasharray:none;stroke-dashoffset:0;stroke-opacity:1;paint-order:stroke fill markers"
       id="path979"
       d="m 77.224296,146.79158 c -1.403643,0.16104 -2.813909,0.24537 -4.225274,0.29744 -1.162362,0.0383 -2.325393,0.0437 -3.488266,0.0459 -1.870885,0.003 -1.875811,-2.64235 -0.0049,-2.64583 v 0 c 1.132147,-0.002 2.264445,-0.007 3.396102,-0.0442 1.346205,-0.0492 2.691355,-0.12941 4.030184,-0.28304 1.859444,-0.2066 2.151626,2.42305 0.292182,2.62965 z"
       inkscape:connector-curvature="0" />
    <path
       style="opacity:1;vector-effect:none;fill:#000000;fill-opacity:1;fill-rule:nonzero;stroke:none;stroke-width:1.06500006;stroke-linecap:round;stroke-linejoin:miter;stroke-miterlimit:4;stroke-dasharray:none;stroke-dashoffset:0;stroke-opacity:1;paint-order:stroke fill markers"
       id="path981"
       d="m 84.814478,142.65215 c 1.169574,0.14976 2.345761,0.22891 3.523162,0.28135 0.668335,0.0275 1.337255,0.0342 2.006045,0.0406 1.870802,0.018 1.845413,2.66367 -0.0254,2.64572 v 0 c -0.699744,-0.007 -1.399612,-0.014 -2.098869,-0.0431 -1.247563,-0.056 -2.493843,-0.14052 -3.733127,-0.29913 -1.856441,-0.23206 -1.528266,-2.85746 0.328175,-2.62541 z"
       inkscape:connector-curvature="0" />
    <path
       style="opacity:1;vector-effect:none;fill:#000000;fill-opacity:1;fill-rule:nonzero;stroke:none;stroke-width:1.06500006;stroke-linecap:round;stroke-linejoin:miter;stroke-miterlimit:4;stroke-dasharray:none;stroke-dashoffset:0;stroke-opacity:1;paint-order:stroke fill markers"
       id="path983"
       d="m 85.753648,144.06911 c 1.139846,-0.42564 2.324478,-0.7177 3.52225,-0.92254 0.777369,-0.0505 1.529821,-0.23057 2.291138,-0.38105 1.835409,-0.36262 2.348222,2.23305 0.512813,2.59566 v 0 c -0.785072,0.15502 -1.564262,0.33931 -2.365108,0.39458 -1.102577,0.18145 -2.185432,0.47091 -3.234227,0.85738 -1.798902,0.51397 -2.525768,-2.03006 -0.726866,-2.54403 z"
       inkscape:connector-curvature="0" />
    <path
       style="opacity:1;vector-effect:none;fill:#000000;fill-opacity:1;fill-rule:nonzero;stroke:none;stroke-width:1.06500006;stroke-linecap:round;stroke-linejoin:miter;stroke-miterlimit:4;stroke-dasharray:none;stroke-dashoffset:0;stroke-opacity:1;paint-order:stroke fill markers"
       id="path989"
       d="m 96.897588,115.74645 c -0.112871,1.73366 -0.275219,3.46076 -0.460893,5.18808 -0.270592,1.36843 -0.03038,2.24089 0.538146,3.47654 -0.02273,0.16428 1.088557,1.70013 1.252236,1.07323 0.244994,-0.10574 0.102344,-0.12701 0.100772,-0.26155 -0.0031,-0.26928 0.06535,-0.53468 0.09046,-0.8028 0.08187,-1.64801 0.102026,-3.30223 0.01839,-4.95031 -0.275725,-1.67312 -0.590039,-3.36669 -1.133125,-4.97707 -0.04276,-0.0885 -0.08367,-0.17788 -0.128268,-0.26545 -0.03674,-0.0721 0.02677,0.19719 0.104699,0.21918 0.513278,0.14479 1.046109,0.26527 1.579334,0.25588 0.158716,-0.003 0.23118,-0.352 0.377458,-0.29035 0.130683,0.0551 -0.04065,0.28095 -0.07112,0.41945 -0.06173,0.28052 -0.136885,0.55791 -0.205327,0.83686 -0.441368,1.66847 -0.779,3.36524 -1.267312,5.02069 -0.06716,0.23139 -0.136816,0.46207 -0.201483,0.69418 -0.184825,0.66339 -0.151812,0.67602 -0.424651,1.36169 -0.193204,0.48554 -0.454088,0.92937 -0.584483,1.43661 0.371078,-1.41179 -1.423331,-0.98951 -2.210557,-0.95439 -0.08786,0.004 -0.09489,0.25472 -0.166957,0.2043 -0.08045,-0.0563 0.02991,-0.1941 0.04232,-0.2915 0.01677,-0.13165 0.03012,-0.26372 0.04518,-0.39558 0.02299,-1.42687 0.643575,-2.69263 1.348827,-3.89696 0.461658,-0.59769 1.277538,-1.92842 2.258796,-1.7094 1.376502,0.30726 1.300339,0.79645 1.610367,1.79615 0.03221,0.28981 0.07157,0.57891 0.09664,0.86943 0.06364,0.73741 0.06312,1.01754 0.03594,1.77053 -0.02432,0.67347 -0.118869,1.3108 0.02244,1.97345 0.03504,0.0556 0.04205,0.14834 0.105124,0.16684 0.04689,0.0138 0.0071,-0.1093 -0.02733,-0.14402 -0.136761,-0.13809 -0.275651,-0.30626 -0.464418,-0.35253 -0.265882,-0.0652 -0.557329,-0.0381 -0.820393,0.0376 -0.459648,0.13235 -0.440743,0.57657 -0.412893,0.13575 0.132778,-1.0069 0.138165,-2.02559 0.146595,-3.0396 0.01008,-1.41552 -0.270521,-1.26079 2.643418,-0.37546 0.14719,0.0447 -10e-4,0.30767 -0.002,0.4615 -5.3e-4,0.16947 -7.9e-4,0.33895 -0.001,0.50843 0.11191,1.36215 -0.38716,2.58853 -0.874666,3.82474 -0.372449,0.92241 -0.475652,2.51412 -1.772065,2.70154 -0.432086,0.0625 -0.844066,-0.2235 -1.266098,-0.33525 -0.922006,-0.78494 -0.656375,-1.95458 -1.063019,-2.94151 0.191733,0.11532 -0.121949,-0.13709 -0.09126,-0.10299 0.661934,0.73549 1.794457,0.7039 2.204619,-0.62956 0.12836,0.95627 0.155527,1.92242 0.183848,2.88571 0.02742,1.08096 0.0305,2.1623 0.03225,3.24354 0.01638,1.00218 -0.185976,1.99006 -0.280821,2.98483 -0.02119,0.28899 -0.05744,0.49215 -0.01162,0.77192 0.01471,0.0899 0.149201,0.3322 0.108728,0.25062 -0.225412,-0.45432 -0.107328,-0.29417 -0.530347,-0.59128 0.07863,-0.34913 -0.454427,0.0923 -0.480734,-0.0674 -0.0117,-0.071 0.10691,-0.0966 0.15549,-0.14973 0.226166,-0.24713 0.387154,-0.53219 0.549185,-0.82278 0.381143,-0.72712 0.410305,-1.54582 0.529005,-2.34011 0.189201,-1.01791 0.70245,-1.92906 0.921181,-2.93823 0.108392,-0.46541 0.66861,-2.34889 1.288234,-2.38666 0.59769,-0.0364 1.1786,0.21245 1.7679,0.31867 0.12184,0.35281 0.30592,0.68997 0.36553,1.05843 0.14183,0.87679 -0.61003,1.64384 -1.01474,2.3316 -0.0216,0.0848 -0.0305,0.17175 -0.0452,0.25782 -0.36915,1.8341 -2.962968,1.31206 -2.593826,-0.52205 v 0 c 0.08065,-0.38196 0.180596,-0.75516 0.372268,-1.10035 0.190019,-0.31123 0.251781,-0.43048 0.460476,-0.71049 0.244001,-0.32738 0.347295,0.2657 0.509462,0.47759 0.53018,0.042 1.06128,0.17853 1.59053,0.12611 0.1385,-0.0137 0.18833,-0.20506 0.27834,-0.31122 0.0109,-0.0129 -0.032,0.016 -0.0404,0.0306 -0.0449,0.078 -0.0829,0.16 -0.1173,0.24314 -0.13903,0.33578 -0.14549,0.4129 -0.24224,0.77776 -0.22324,0.94194 -0.60545,1.82064 -0.88416,2.74337 -0.17289,1.12388 -0.26807,2.26409 -0.856618,3.27205 -0.542327,0.91303 -1.258363,1.99219 -2.376694,2.25513 -0.260236,0.0612 -0.53454,0.0116 -0.801809,0.0174 -0.251878,-0.11617 -0.536913,-0.17794 -0.755631,-0.34853 -0.86228,-0.67256 -0.855141,-1.92566 -0.778574,-2.8975 0.08864,-0.90891 0.269701,-1.81222 0.268584,-2.72637 -0.0016,-1.05689 -0.0046,-2.11388 -0.03113,-3.17051 -0.02643,-0.90914 -0.05131,-1.82088 -0.174091,-2.72325 -0.06672,-2.5897 2.501215,-2.04061 3.023709,-0.36737 0.154596,0.48448 0.246975,0.93023 0.320349,1.4305 0.04789,0.32653 0.09212,0.44838 0.07443,0.44449 -0.109691,-0.0241 -0.178065,-0.13692 -0.2671,-0.20538 -0.314864,-0.033 -0.641265,-0.18966 -0.944591,-0.099 -0.752885,0.22506 -0.736598,1.02446 -0.452311,0.14483 0.07005,-0.21676 0.121044,-0.43938 0.191521,-0.65599 0.06524,-0.20051 0.143608,-0.3965 0.215414,-0.59475 0.369612,-0.93724 0.795178,-1.82173 0.690186,-2.86052 7.94e-4,-0.35466 0.0021,-0.98037 0.003,-0.98061 2.918006,-0.92095 2.646136,-1.03917 2.648106,0.41489 -0.0102,1.19497 -0.0172,2.39724 -0.20702,3.57995 -0.16063,0.62169 -0.21434,1.20256 -0.864592,1.60159 -1.357443,0.83299 -2.402899,-0.43456 -2.713289,-1.58913 -0.0382,-0.28035 -0.09755,-0.55863 -0.114589,-0.84106 -0.07288,-1.20804 0.222846,-2.42996 -0.01476,-3.63545 0.386945,-0.31941 -0.336908,0.24057 1.076023,0.2921 0.219138,0.008 0.3829,-0.21634 0.586134,-0.29869 0.06493,-0.0263 -0.113768,0.0822 -0.166272,0.12857 -0.264202,0.23342 -0.256479,0.26178 -0.500605,0.58197 -0.534143,0.89244 -1.007017,1.79145 -0.998633,2.85877 -0.03867,0.32305 -0.112813,1.67651 -0.456125,1.79411 -2.004894,0.68681 -2.599315,0.18083 -2.419808,-1.41238 0.367964,-1.18017 0.996164,-2.26571 1.212612,-3.49923 0.484044,-1.61316 0.796655,-3.27469 1.234725,-4.90084 0.14065,-0.56579 0.389753,-2.30028 0.986671,-2.52432 1.5318,-0.57492 2.00296,0.11395 2.438847,1.1568 0.594411,1.84319 1.000151,3.75581 1.262201,5.67329 0.0852,1.78541 0.0737,3.57745 -0.0302,5.36207 -0.19585,1.68791 -0.5913,2.87335 -2.366428,3.38875 -0.31328,0.0278 -0.626092,0.10538 -0.939843,0.0835 -1.566928,-0.10934 -2.511197,-1.41169 -3.179688,-2.6749 -0.748276,-1.68326 -1.082873,-3.00599 -0.757103,-4.84745 0.186021,-1.73054 0.346163,-3.46078 0.461921,-5.19748 0.206605,-1.85945 2.836256,-1.56726 2.629651,0.29218 z"
       inkscape:connector-curvature="0" />
    <path
       style="opacity:1;vector-effect:none;fill:#000000;fill-opacity:1;fill-rule:nonzero;stroke:none;stroke-width:1.06500006;stroke-linecap:round;stroke-linejoin:miter;stroke-miterlimit:4;stroke-dasharray:none;stroke-dashoffset:0;stroke-opacity:1;paint-order:stroke fill markers"
       id="path991"
       d="m 71.571058,114.58531 c -0.243155,1.88021 -0.983112,3.65784 -1.484794,5.48079 -0.437811,1.66864 -1.014576,3.29377 -1.582655,4.92122 -0.376164,0.97895 -0.533657,2.01455 -0.753539,3.03417 -0.344855,0.98431 -0.499636,1.9959 -0.579279,3.03038 0.04835,0.69129 -0.242445,1.51509 0.04802,2.18308 0.0071,0.0163 0.05078,-0.0149 0.04324,-0.0309 -0.05833,-0.12397 -0.147264,-0.23109 -0.220895,-0.34663 -0.06771,-0.52406 -0.652148,-0.0303 -0.818343,-0.23808 -0.0765,-0.0957 0.400899,-1.29961 0.418219,-1.34702 0.418862,-1.36385 0.789958,-2.75072 1.011235,-4.16164 0.09007,-1.60748 0.312089,-3.16868 0.821626,-4.6984 0.371613,-0.94481 0.711369,-1.89494 0.69628,-2.91675 -0.05385,-0.937 -0.118578,-1.87291 -0.154305,-2.81092 -0.008,-0.2761 -0.0013,-0.56102 -0.05984,-0.83377 -0.01291,-0.0602 -0.05221,-0.23006 -0.06951,-0.17101 -0.11307,0.38595 0.439618,0.55273 0.667559,0.6293 0.100195,-0.007 0.242795,-0.10458 0.300585,-0.0224 0.05303,0.0754 -0.10414,0.15216 -0.155495,0.22873 -0.531567,0.79246 -0.996191,1.62247 -1.477984,2.44556 -0.81407,1.38944 -1.411822,2.85141 -1.816428,4.40649 -0.350242,1.6393 -0.836324,3.22963 -1.475324,4.77858 -0.155861,0.55373 -0.856748,1.82218 -0.609886,2.3634 -0.0973,-0.49145 0.353308,0.28726 0.502814,0.44105 -0.01355,-0.0206 -0.02707,-0.0411 -0.04061,-0.0616 0.15987,0.22263 1.241978,0.77888 0.197186,0.29251 -0.320818,0.0722 -0.66367,0.0793 -0.962453,0.21667 -0.149945,0.0689 -0.209704,0.25528 -0.323694,0.37461 -0.01,0.0105 -0.04127,0.0231 -0.04243,0.009 -0.02951,-0.36438 0.03335,-0.77061 0.04047,-1.13687 0.0182,-1.01515 -0.0286,-2.02996 0.0524,-3.04245 0.121864,-0.63205 0.543184,-2.23324 1.171958,-2.58005 0.316341,-0.17449 0.6814,-0.24033 1.022099,-0.36049 0.434597,0.34631 0.944311,0.61516 1.303787,1.03893 0.144151,0.16993 0.10119,0.43458 0.133226,0.65511 0.151992,1.04621 -0.01675,1.89512 -0.361662,2.87746 -0.410212,0.93563 -0.884584,1.83088 -1.375984,2.72364 -0.28698,0.57675 -0.362048,0.80363 -0.304948,1.41064 0.113337,0.007 0.183354,0.23554 0.300172,0.12998 0.03801,0.006 0.115835,0.0573 0.114041,0.0188 -0.0019,-0.0409 -0.08205,-0.0189 -0.11517,-0.0431 -0.0094,-0.007 0.01707,-0.0169 0.02811,-0.0204 0.11652,-0.037 0.233601,-0.0768 0.354785,-0.0928 0.179988,-0.0238 0.361738,-0.0316 0.542608,-0.0474 0.641193,0.0239 1.248428,0.14025 1.838248,0.39216 1.685202,0.8126 0.536019,3.19583 -1.149183,2.38323 v 0 c -0.06561,-0.0696 -0.47225,-0.0874 -0.663451,-0.12968 0.03969,-0.0144 0.160763,-0.0501 0.119084,-0.0433 -0.537962,0.0881 -0.954646,0.24433 -1.525056,0.18498 -0.123121,-0.0128 -0.240834,-0.0574 -0.361252,-0.0861 -1.143029,-0.42683 -1.870117,-1.22696 -2.121193,-2.44636 -0.06859,-1.04184 0.120261,-1.97904 0.631301,-2.8974 0.439968,-0.78422 0.849656,-1.57653 1.222584,-2.39753 0.184346,-0.36563 0.238252,-0.70832 0.237334,-1.12093 -6e-6,-0.002 -0.05599,-0.50448 -0.0048,-0.48016 0.394242,0.18745 0.763214,0.42397 1.144823,0.63596 0.268994,-0.12051 0.550283,-0.21666 0.806984,-0.36152 0.04697,-0.0265 0.122981,-0.10544 0.08143,-0.13982 -0.01971,-0.0163 -0.111443,0.1565 -0.234617,0.43295 -0.14433,0.32394 -0.110048,0.25113 -0.199781,0.5976 -0.0984,0.94869 5.29e-4,1.90843 -0.04251,2.86061 -0.01587,0.78156 0.134832,2.23619 -0.634204,2.74048 -0.331202,0.21719 -0.755382,0.23845 -1.133075,0.35767 -0.221671,-0.0798 -0.451657,-0.13948 -0.665014,-0.23941 -0.379225,-0.17761 -0.646356,-0.59432 -1.011921,-0.79594 -0.47232,-0.51213 -0.923858,-1.07064 -1.166584,-1.7303 -0.230786,-1.44045 0.228676,-2.57684 0.760055,-3.89701 0.599368,-1.43663 1.033124,-2.91592 1.360501,-4.43793 0.473572,-1.7852 1.15567,-3.4738 2.091925,-5.07034 0.51658,-0.88235 1.412071,-2.71194 2.177082,-3.33101 0.287303,-0.2325 0.628708,-0.38875 0.943062,-0.58312 0.352139,-5.3e-4 0.715274,-0.0892 1.056418,-0.002 1.302422,0.33336 1.545338,1.75517 1.545412,2.87593 0.0367,0.97107 0.109974,1.93956 0.156205,2.91008 -0.01098,1.31375 -0.332687,2.55484 -0.836581,3.76808 -0.481536,1.3845 -0.601382,2.81167 -0.714541,4.26619 -0.256228,1.57641 -0.654974,3.13024 -1.138674,4.65162 -0.434182,1.18828 -0.926452,3.08538 -2.535555,3.1047 -0.342255,0.004 -0.669079,-0.14474 -1.00362,-0.21711 -0.224277,-0.21465 -0.489572,-0.39336 -0.672833,-0.64394 -0.725414,-0.99188 -0.371068,-2.45994 -0.381064,-3.57981 0.09227,-1.14884 0.246282,-2.28706 0.630563,-3.38034 0.242829,-1.12603 0.426038,-2.26791 0.842005,-3.34869 0.54919,-1.57202 1.108181,-3.14108 1.530212,-4.7533 0.280713,-1.01314 0.593204,-2.01189 0.909868,-3.01426 0.103992,-0.32918 0.363326,-1.09384 0.434599,-1.47578 0.03779,-0.20251 0.04352,-0.40971 0.06528,-0.61457 0.232056,-1.85643 2.857458,-1.52826 2.625402,0.32818 z"
       inkscape:connector-curvature="0" />
    <path
       style="opacity:1;vector-effect:none;fill:#000000;fill-opacity:1;fill-rule:nonzero;stroke:none;stroke-width:1.06500006;stroke-linecap:round;stroke-linejoin:miter;stroke-miterlimit:4;stroke-dasharray:none;stroke-dashoffset:0;stroke-opacity:1;paint-order:stroke fill markers"
       id="path995"
       d="m 101.48661,131.05217 c 0,1.49409 0,2.98818 0,4.48227 0.0852,1.77156 -0.0737,3.17867 -0.97582,4.72968 -0.24579,0.21556 -0.45968,0.47414 -0.737377,0.64667 -0.927637,0.57634 -2.156708,0.39571 -3.184033,0.31692 -0.34762,-0.0658 -0.685014,-0.0251 -1.030594,0.0129 -1.861672,0.18546 -2.123953,-2.44734 -0.262281,-2.6328 v 0 c 0.497522,-0.0464 0.998079,-0.0902 1.496274,-0.0182 0.308012,0.0239 1.19689,0.003 1.446765,0.0842 0.06457,0.0209 -0.02,0.21623 0.01834,0.20282 0.689808,-0.98124 0.598736,-2.19745 0.582901,-3.34231 0,-1.49409 0,-2.98818 0,-4.48227 0,-1.87088 2.645825,-1.87088 2.645825,0 z"
       inkscape:connector-curvature="0" />
    <path
       style="opacity:1;vector-effect:none;fill:#000000;fill-opacity:1;fill-rule:nonzero;stroke:none;stroke-width:1.06500006;stroke-linecap:round;stroke-linejoin:miter;stroke-miterlimit:4;stroke-dasharray:none;stroke-dashoffset:0;stroke-opacity:1;paint-order:stroke fill markers"
       id="path997"
       d="m 65.956843,132.94206 c 0,1.52549 0,3.05099 0,4.57649 -0.0094,1.13671 -0.02839,2.26723 0.09944,3.39737 -0.04628,0.011 0.315944,1.22456 0.417046,0.89693 -0.194034,-0.10919 0.0688,-0.16342 0.197202,-0.21224 1.762221,-0.62833 2.650808,1.86383 0.888585,2.49215 v 0 c -0.758738,0.26179 -1.460791,0.38081 -2.242759,0.0996 -1.287365,-0.72281 -1.63376,-1.56494 -1.889535,-2.98253 -0.135859,-1.22827 -0.131977,-2.45628 -0.115811,-3.69124 0,-1.5255 0,-3.051 0,-4.57649 0,-1.87089 2.645833,-1.87089 2.645833,0 z"
       inkscape:connector-curvature="0" />
    <path
       style="opacity:1;vector-effect:none;fill:#000000;fill-opacity:1;fill-rule:nonzero;stroke:none;stroke-width:1.06500006;stroke-linecap:round;stroke-linejoin:miter;stroke-miterlimit:4;stroke-dasharray:none;stroke-dashoffset:0;stroke-opacity:1;paint-order:stroke fill markers"
       id="path999"
       d="m 65.885012,98.032656 c -1.22541,0.220104 -2.478636,0.393343 -3.578932,1.006845 -0.105037,0.0705 -0.216069,0.132811 -0.315116,0.211514 -0.05214,0.04143 -0.13236,0.08017 -0.13567,0.146685 -0.0044,0.08822 0.18542,-0.202039 0.232447,-0.127262 0.05241,0.08333 0.02209,0.195773 0.03935,0.29269 0.02826,0.158763 0.06475,0.315947 0.09713,0.473922 0.649227,1.63302 1.529554,3.15413 2.529666,4.59386 0.697336,0.7494 1.365025,2.02973 2.482953,2.20273 0.585906,0.0816 1.137687,-0.0493 1.655609,-0.32098 0.08929,-0.0577 0.178588,-0.11545 0.26788,-0.17318 1.593678,-0.98 2.979616,1.2738 1.385938,2.2538 v 0 c -0.170045,0.10175 -0.34009,0.20351 -0.510136,0.30526 -1.131437,0.51941 -2.3076,0.7577 -3.545249,0.4736 -0.254921,-0.0858 -0.519645,-0.14657 -0.76476,-0.25729 -1.341792,-0.60607 -2.249615,-1.87481 -3.148166,-2.9787 -1.200949,-1.74237 -2.288416,-3.5886 -2.953605,-5.60807 -0.317367,-1.775564 -0.254142,-2.859975 1.447935,-3.829133 1.418712,-0.723516 2.949046,-1.071152 4.520542,-1.295942 1.859444,-0.206605 2.151626,2.423046 0.292182,2.629651 z"
       inkscape:connector-curvature="0" />
    <path
       style="opacity:1;vector-effect:none;fill:#000000;fill-opacity:1;fill-rule:nonzero;stroke:none;stroke-width:1.06500006;stroke-linecap:round;stroke-linejoin:miter;stroke-miterlimit:4;stroke-dasharray:none;stroke-dashoffset:0;stroke-opacity:1;paint-order:stroke fill markers"
       id="path1001"
       d="m 65.200892,91.077123 c 0,1.421712 0,2.843421 0,4.265133 -0.0083,1.430886 0.29311,1.331648 -2.645834,0.504796 -0.15521,-0.04367 0.0066,-0.322609 0,-0.483708 -0.01759,-0.427675 -0.06814,-0.853356 -0.103187,-1.279951 -0.215212,-1.223696 -0.03497,-2.513648 -0.278112,-3.729014 0.175258,0.706654 0.01133,0.395335 1.164424,0.947719 0.07769,0.03722 0.271274,-0.05466 0.256656,0.03024 -0.0011,0.0061 -1.249415,1.536525 -1.295551,1.596379 -0.971735,1.167238 -1.784421,2.445964 -2.637697,3.698026 -0.142505,0.225062 -0.393676,0.597424 -0.504402,0.855546 -0.03041,0.07089 -0.04749,0.148172 -0.05401,0.225038 -0.0013,0.01439 0.03193,0.04315 0.03248,0.02871 0.0056,-0.146492 0.07871,-0.328311 -0.01685,-0.43947 -0.291179,-0.338646 -0.708443,-0.544031 -1.062665,-0.816047 -0.218897,0.03941 -0.435234,0.138838 -0.656695,0.118227 -0.06756,-0.0063 0.07544,-0.112819 0.11386,-0.168752 0.08677,-0.126327 0.174673,-0.251875 0.261713,-0.37802 0.371597,-0.538549 0.747802,-1.071142 1.13702,-1.597155 0.804109,-1.07569 1.850361,-1.754415 3.164147,-1.988195 1.038635,0.02254 2.18218,0.566417 2.077942,1.832861 -0.05671,0.688977 -0.438356,1.038529 -0.82958,1.505048 -0.161911,0.150275 -0.316235,0.309165 -0.485735,0.450826 -0.42513,0.355311 -0.864732,0.654187 -1.246285,1.060662 -0.03966,0.04225 -0.141484,0.182943 -0.100907,0.14157 0.04806,-0.049 0.08239,-0.109794 0.123584,-0.164692 -0.316756,-0.610333 -0.50614,-1.306034 -0.950269,-1.831002 -0.121733,-0.143888 -0.375709,0.05114 -0.563923,0.04121 -0.160438,-0.0085 0.250669,-0.201266 0.381053,-0.295141 0.486677,-0.350398 0.136073,-0.120356 0.715711,-0.475032 1.162265,-0.471491 2.398295,-0.0136 2.265543,1.519816 -0.06099,0.704525 -0.832207,1.09392 -1.336784,1.425898 -0.934238,0.679868 -1.793356,1.468536 -3.042261,0.724395 -0.303167,-0.180636 -0.426913,-0.562052 -0.640371,-0.843076 -0.434451,-1.323859 -0.422362,-2.732112 -0.438896,-4.110638 0.1778,-0.06088 -0.360582,-1.457672 -0.322247,-1.10448 0.27894,0.318112 1.026438,0.18156 1.120966,-0.274288 0.08339,-0.402145 0.07576,-0.837732 -0.04125,-1.23141 -0.05842,-0.19657 -0.299717,-0.279967 -0.449577,-0.41995 -0.01786,-0.01929 -0.07777,-0.04763 -0.05356,-0.05784 0.278315,-0.11739 1.346681,-0.151289 1.735381,-0.206825 0.0016,-0.0021 0.0031,-0.0044 0.0047,-0.0066 0.09072,0.873805 0.24438,1.743353 0.272169,2.621415 2.51e-4,0.0079 -1.028084,0.251764 -1.503799,0.348133 -0.725977,0.09933 -1.447276,0.255611 -2.138386,0.502724 -0.595006,0.212746 -0.219441,0.100508 -0.168852,0.08576 -0.430866,-0.774202 -0.919893,-1.518787 -1.292601,-2.322607 -0.02897,-0.06247 0.09966,-0.09505 0.149651,-0.142407 0.425172,-0.402749 0.789882,-0.850855 1.167318,-1.298252 1.021371,-1.010465 1.838888,-1.644063 3.320793,-1.687939 0.211643,0.04282 0.429969,0.06049 0.634923,0.128445 0.529966,0.175728 0.587193,0.304525 1.027277,0.598657 0.03238,0.02164 0.345678,0.186481 0.377351,0.195074 0.02703,0.0073 -0.03948,-0.03974 -0.05922,-0.05961 0.05101,-0.02 -0.03623,-0.04244 -0.03485,-0.02767 0.291301,3.117093 0.958934,2.329714 -0.768784,3.024015 -1.164781,0.354656 -2.158363,1.031973 -3.168476,1.684976 -0.413673,0.277979 -0.468725,0.3185 -0.863679,0.571809 -0.09779,0.06272 -0.348782,0.294651 -0.288721,0.195207 0.157202,-0.260292 0.505301,-0.480684 0.468796,-0.782563 -0.06209,-0.513514 -0.486047,-0.913215 -0.729072,-1.369822 -0.363731,-0.09755 0.123224,-0.14522 0.367202,-0.254897 1.602732,-0.459666 1.889199,-0.05574 2.13378,2.000065 0.0016,0.01355 -0.39845,0.481861 -0.499375,0.600485 -0.541819,0.943054 0.235027,-0.387353 -0.359661,-0.904129 -0.260697,-0.226542 -0.628605,-0.286343 -0.942909,-0.429514 -0.121589,-0.02801 -0.05582,-0.0062 0.196361,-0.06805 1.81711,-0.445344 2.446919,2.124434 0.629811,2.569778 v 0 c -0.36734,0.09002 -0.154797,0.04165 -0.639321,0.137499 -0.395184,-0.137446 -0.849436,-0.163163 -1.185555,-0.412335 -0.905214,-0.671049 -0.215778,-1.97195 0.296272,-2.619636 0.07636,-0.08799 0.142566,-0.185936 0.229074,-0.263967 0.01984,-0.01789 -0.03215,0.05243 -0.02188,0.07707 0.249841,0.598381 0.464283,1.21775 0.7953,1.77534 0.05471,0.09216 0.362583,0.02204 0.443143,-0.02005 0.034,-0.01778 -0.07531,0.01479 -0.112959,0.02217 -0.739314,0.273799 -1.509723,0.504537 -2.292588,0.254431 -0.309901,-0.48275 -0.824298,-0.884356 -0.929703,-1.448249 -0.159271,-0.852078 1.390891,-1.468438 1.869424,-1.852705 1.154718,-0.746221 2.305399,-1.503387 3.629395,-1.922405 0.0845,-0.03317 1.376252,-0.526444 1.391984,-0.488103 1.07375,2.616562 1.331124,2.64786 -0.154316,2.541138 -0.214249,-0.06163 -1.609537,-0.439918 -1.465104,-0.806733 -0.03234,-0.0081 -0.06943,-0.0056 -0.09702,-0.02434 -0.0136,-0.0092 0.0062,-0.05114 -0.01003,-0.04828 -0.46454,0.08199 -0.796761,0.574371 -1.165405,0.820973 -0.45982,0.545008 -0.906979,1.099545 -1.439625,1.576589 -0.122642,0.109839 -0.252708,0.430345 -0.375584,0.320765 -0.658145,-0.586944 -1.07643,-1.397117 -1.614646,-2.095675 0.971272,-0.5393 2.088544,-0.755798 3.175484,-0.928245 2.094087,-0.403839 1.873557,-1.191816 2.350305,2.201722 0.01132,0.08059 -0.159242,0.03365 -0.238866,0.05047 -0.933625,0.130384 -1.884416,0.287607 -2.825409,0.17486 -0.308112,-0.188396 -0.748527,-0.249724 -0.924332,-0.565187 -0.806625,-1.447419 0.412517,-2.737308 1.842415,-2.486543 0.251555,0.04412 0.479653,0.175612 0.719479,0.263416 0.169339,0.134033 0.35696,0.247756 0.508019,0.402098 0.732954,0.748895 0.890645,1.861151 0.966189,2.855055 0.01138,0.981803 0.04334,1.962796 0.149588,2.938476 -0.482508,-0.303382 -0.321318,-0.276259 -1.133661,-0.209727 -0.0416,0.0034 -0.124981,0.107317 -0.08698,0.09006 0.405567,-0.18414 0.699392,-0.56301 1.092676,-0.768625 0.960298,-0.631812 0.128175,-0.128633 0.178631,0.365196 0.0896,0.876943 0.783164,1.700541 1.699533,1.173345 -0.418029,0.234021 -1.70415,1.449689 -2.18122,1.084302 -0.58203,-0.445772 -0.785942,-1.23781 -1.178914,-1.856716 0.508608,-0.918326 1.323279,-1.539123 2.142855,-2.171983 0.06489,-0.06719 0.13326,-0.271941 0.194669,-0.201559 0.08832,0.101219 -0.04962,0.271674 -0.01929,0.402545 0.09244,0.398946 0.402889,1.004532 0.906055,0.827283 -0.432062,-0.142867 -1.156771,0.676627 -1.376449,0.938929 -0.421889,0.568915 -1.473433,2.307686 -1.967254,2.620116 -0.336249,0.212738 -0.729962,0.316913 -1.094944,0.475369 -0.434866,-0.274463 -0.960273,-0.441444 -1.304599,-0.823386 -0.652958,-0.724294 0.371136,-2.547366 0.804312,-3.165673 0.883417,-1.294593 1.726491,-2.616004 2.729722,-3.824746 0.496226,-0.641217 1.863352,-2.601526 2.728047,-2.623923 0.540303,-0.014 1.079288,0.240567 1.528487,0.541142 0.212956,0.142499 0.21521,0.46509 0.322816,0.697635 0.192844,1.303062 0.1417,2.632609 0.30412,3.940765 0.01638,0.199678 0.155948,1.967751 0.112056,1.980099 -2.938941,0.826852 -2.63753,0.926089 -2.645833,-0.504796 0,-1.421712 0,-2.843421 0,-4.265133 0,-1.870888 2.645833,-1.870888 2.645833,0 z"
       inkscape:connector-curvature="0" />
    <path
       style="opacity:1;vector-effect:none;fill:#000000;fill-opacity:1;fill-rule:nonzero;stroke:none;stroke-width:1.06500006;stroke-linecap:round;stroke-linejoin:miter;stroke-miterlimit:4;stroke-dasharray:none;stroke-dashoffset:0;stroke-opacity:1;paint-order:stroke fill markers"
       id="path1027"
       d="m 93.540481,111.63767 c -2.21996,0.22029 -4.452914,0.2574 -6.681766,0.30022 -2.062308,0.0802 -4.158793,-0.0503 -6.099699,-0.8192 -1.113692,-0.44118 -1.837447,-0.93722 -2.844509,-1.55095 -1.102894,-0.74425 -2.036942,-1.67351 -2.943196,-2.63625 -1.277331,-1.36698 0.655873,-3.1734 1.933205,-1.80642 v 0 c 0.736981,0.79586 1.501841,1.56042 2.393812,2.18757 0.67555,0.41788 1.510975,0.97299 2.251308,1.28111 1.666877,0.69374 3.480345,0.76921 5.258337,0.69879 2.136201,-0.0409 4.276124,-0.0757 6.404335,-0.28027 1.856438,-0.23205 2.184614,2.39335 0.328173,2.6254 z"
       inkscape:connector-curvature="0" />
    <g
       id="g1076"
       transform="translate(-1.1339286)"
       style="fill:#ffffff">
      <path
         inkscape:connector-curvature="0"
         d="m 106.78482,48.707755 c 0.76986,1.545251 1.54642,3.08824 2.2948,4.643982 0.70492,1.140958 1.1023,2.411603 1.5744,3.654319 0.66139,1.750081 -1.8136,2.685431 -2.47499,0.93535 v 0 c -0.44178,-1.174224 -0.81258,-2.370444 -1.48463,-3.4446 -0.71852,-1.500063 -1.47442,-2.982894 -2.20681,-4.47635 -0.92822,-1.624386 1.369,-2.937087 2.29723,-1.312701 z"
         id="path1031"
         style="opacity:1;vector-effect:none;fill:#ffffff;fill-opacity:1;fill-rule:nonzero;stroke:none;stroke-width:1.06500006;stroke-linecap:round;stroke-linejoin:miter;stroke-miterlimit:4;stroke-dasharray:none;stroke-dashoffset:0;stroke-opacity:1;paint-order:stroke fill markers" />
      <path
         inkscape:connector-curvature="0"
         d="m 109.15054,44.742225 c 1.37013,-0.678982 2.66407,-1.495018 4.00362,-2.229295 0.66398,-0.296084 1.30216,-0.641157 1.93333,-1.000252 1.62777,-0.922274 2.93207,1.379736 1.3043,2.30201 v 0 c -0.64416,0.363683 -1.29119,0.722281 -1.96934,1.020278 -1.27356,0.692754 -2.49111,1.488131 -3.80426,2.108727 -1.55667,1.03778 -3.02432,-1.163685 -1.46765,-2.201468 z"
         id="path1033"
         style="opacity:1;vector-effect:none;fill:#ffffff;fill-opacity:1;fill-rule:nonzero;stroke:none;stroke-width:1.06500006;stroke-linecap:round;stroke-linejoin:miter;stroke-miterlimit:4;stroke-dasharray:none;stroke-dashoffset:0;stroke-opacity:1;paint-order:stroke fill markers" />
      <path
         inkscape:connector-curvature="0"
         d="m 114.01874,44.631835 c 0.56659,1.859706 1.13679,3.718229 1.72224,5.572361 0.21455,0.753245 0.51373,1.47307 0.83874,2.183392 0.77211,1.704133 -1.6379,2.796058 -2.41001,1.091924 v 0 c -0.36343,-0.808537 -0.70715,-1.624285 -0.95179,-2.478682 -0.60851,-1.927334 -1.20645,-3.857927 -1.78201,-5.795034 -0.40585,-1.826334 2.17698,-2.400297 2.58283,-0.573961 z"
         id="path1035"
         style="opacity:1;vector-effect:none;fill:#ffffff;fill-opacity:1;fill-rule:nonzero;stroke:none;stroke-width:1.06500006;stroke-linecap:round;stroke-linejoin:miter;stroke-miterlimit:4;stroke-dasharray:none;stroke-dashoffset:0;stroke-opacity:1;paint-order:stroke fill markers" />
      <path
         inkscape:connector-curvature="0"
         d="m 111.2728,61.765249 c 1.2772,0.08821 2.53337,0.333886 3.79759,0.522184 0.83612,0.0756 1.65855,0.203338 2.47975,0.374997 0.15541,0.04193 0.31381,0.07401 0.46622,0.125799 0.87165,0.296209 0.42455,0.189902 1.27459,0.564094 0.11462,0.05045 0.23555,0.08549 0.35543,0.121698 0.0473,0.01429 0.19473,0.03095 0.14532,0.02955 -0.18794,-0.0053 -0.37503,-0.02759 -0.56254,-0.04138 -0.0157,-0.03311 -0.0673,-0.06886 -0.047,-0.09933 0.23667,-0.354733 0.5741,-0.632349 0.83044,-0.973138 0.42427,-0.564047 0.7848,-1.159454 1.13054,-1.773312 0.66911,-1.366112 0.15997,-1.956739 2.83593,-0.0098 0.1907,0.13875 -0.15147,0.446699 -0.22798,0.669779 -0.098,0.285687 -0.19702,0.571014 -0.29553,0.85652 -0.69108,1.959716 -1.15557,3.986475 -1.69729,5.989257 -0.66083,1.429816 -0.97559,2.938536 -1.27165,4.471871 -0.35485,1.836928 -2.95265,1.33509 -2.5978,-0.501836 v 0 c 0.30806,-1.593863 0.62255,-3.179079 1.31572,-4.662072 0.5593,-2.059739 1.03579,-4.145145 1.74989,-6.160206 0.0975,-0.282498 0.1953,-0.564872 0.29242,-0.847492 0.0697,-0.202711 -0.005,-0.585031 0.20792,-0.6085 3.51893,-0.387606 2.83276,0.316021 1.98957,2.108182 -0.86405,1.51366 -1.83437,3.011196 -3.29013,4.018912 -0.33789,0.04233 -0.67317,0.123108 -1.01368,0.126979 -0.63053,0.0072 -1.47618,-0.706173 -2.13181,-0.815753 -0.7716,-0.161324 -1.54253,-0.276733 -2.32877,-0.347974 -1.24356,-0.185844 -2.47879,-0.4279 -3.73532,-0.513649 -1.85644,-0.232056 -1.52826,-2.857458 0.32817,-2.625402 z"
         id="path1037"
         style="opacity:1;vector-effect:none;fill:#ffffff;fill-opacity:1;fill-rule:nonzero;stroke:none;stroke-width:1.06500006;stroke-linecap:round;stroke-linejoin:miter;stroke-miterlimit:4;stroke-dasharray:none;stroke-dashoffset:0;stroke-opacity:1;paint-order:stroke fill markers" />
      <path
         inkscape:connector-curvature="0"
         d="m 129.07886,57.014055 c 0,2.521227 0,5.042458 0,7.563688 0.006,1.136539 -0.0413,2.285863 0.1447,3.412982 0.0676,0.409721 0.18925,0.980745 0.33159,0.959324 -0.30656,-0.367631 -0.21487,-0.373224 -0.77048,-0.460301 -0.088,-0.01378 -0.17737,0.04296 -0.26558,0.03038 -0.0254,-0.0036 0.0287,-0.04255 0.0457,-0.06173 0.11714,-0.132567 0.24141,-0.258662 0.36124,-0.388805 0.53212,-0.632431 1.11665,-1.210625 1.76857,-1.71703 0.7256,-0.50964 1.51246,-0.918223 2.29404,-1.333754 1.65193,-0.87825 2.89396,1.457942 1.24203,2.336192 v 0 c -0.66685,0.354523 -1.3403,0.696036 -1.96305,1.125013 -0.55372,0.35264 -0.94568,0.921999 -1.39934,1.386264 -0.71448,0.769545 -1.55413,1.588846 -2.72708,1.155295 -0.28986,-0.107138 -0.499,-0.364678 -0.74851,-0.547018 -0.12419,-0.202534 -0.27086,-0.392904 -0.37259,-0.607603 -0.76745,-1.61967 -0.51039,-3.566787 -0.58705,-5.289206 0,-2.52123 0,-5.042461 0,-7.563688 0,-1.870888 2.64583,-1.870888 2.64583,0 z"
         id="path1039"
         style="opacity:1;vector-effect:none;fill:#ffffff;fill-opacity:1;fill-rule:nonzero;stroke:none;stroke-width:1.06500006;stroke-linecap:round;stroke-linejoin:miter;stroke-miterlimit:4;stroke-dasharray:none;stroke-dashoffset:0;stroke-opacity:1;paint-order:stroke fill markers" />
      <path
         inkscape:connector-curvature="0"
         d="m 125.88886,62.611259 c 1.04968,-1.256276 2.08777,-2.503215 3.30941,-3.59728 0.67054,-0.556493 1.47427,-0.897636 2.23952,-1.296844 1.65926,-0.864323 2.8816,1.482235 1.22233,2.346557 v 0 c -0.57191,0.297519 -1.17218,0.550426 -1.69985,0.924066 -1.13737,1.011496 -2.08121,2.185738 -3.06254,3.345386 -1.21756,1.420484 -3.22643,-0.301403 -2.00887,-1.721885 z"
         id="path1041"
         style="opacity:1;vector-effect:none;fill:#ffffff;fill-opacity:1;fill-rule:nonzero;stroke:none;stroke-width:1.06500006;stroke-linecap:round;stroke-linejoin:miter;stroke-miterlimit:4;stroke-dasharray:none;stroke-dashoffset:0;stroke-opacity:1;paint-order:stroke fill markers" />
      <path
         inkscape:connector-curvature="0"
         d="m 127.34369,54.355027 c 0.86019,-1.029124 1.90683,-1.803223 3.11445,-2.370844 0.41568,-0.207243 0.84293,-0.373753 1.28052,-0.52699 1.77279,-0.597873 2.61831,1.909223 0.84552,2.507097 v 0 c -0.3544,0.110749 -0.6859,0.268396 -1.02274,0.424714 -0.86278,0.379804 -1.57237,0.9407 -2.18516,1.659845 -1.19771,1.437254 -3.2303,-0.256566 -2.03259,-1.693822 z"
         id="path1043"
         style="opacity:1;vector-effect:none;fill:#ffffff;fill-opacity:1;fill-rule:nonzero;stroke:none;stroke-width:1.06500006;stroke-linecap:round;stroke-linejoin:miter;stroke-miterlimit:4;stroke-dasharray:none;stroke-dashoffset:0;stroke-opacity:1;paint-order:stroke fill markers" />
      <path
         inkscape:connector-curvature="0"
         d="m 141.93872,47.64414 c -0.98639,0.786577 -1.89452,1.627032 -2.5489,2.712048 -0.49527,0.751083 -0.71338,1.60623 -0.81292,2.488335 -0.13788,0.06889 0.01,1.14945 0.16303,0.863312 -0.0277,-0.03538 -0.11119,-0.07105 -0.0831,-0.106138 0.0128,-0.01603 1.66033,-0.301697 1.78316,-0.324445 1.45384,-0.291362 2.38779,-0.216035 3.77342,0.345236 1.45372,0.676021 2.22622,1.454899 2.7554,2.966402 0.33925,1.540121 -0.2802,2.459091 -1.5966,3.167028 -0.88704,0.380731 -1.86014,0.37918 -2.79835,0.53629 -0.64869,0.214037 -1.20091,0.654883 -1.81034,0.972243 -0.7434,0.218805 -1.3181,0.621633 -1.87056,1.142225 -1.36831,1.275905 -3.17271,-0.659186 -1.8044,-1.935089 v 0 c 0.72142,-0.667755 1.50366,-1.262192 2.45766,-1.556308 0.85416,-0.439843 1.61616,-1.078098 2.59222,-1.232831 0.68683,-0.114218 1.38219,-0.153919 2.06168,-0.298585 0.40685,-0.122068 0.16263,0.382733 0.25306,0.02479 -0.1927,-0.71869 -0.57283,-1.024181 -1.25799,-1.344102 -0.25769,-0.112495 -0.62669,-0.329348 -0.92477,-0.337624 -0.45004,-0.01249 -0.90333,0.115925 -1.34922,0.152035 -1.22043,0.225422 -2.42908,0.597416 -3.62499,0.0461 -0.17693,-0.132085 -0.37285,-0.241977 -0.53081,-0.396258 -0.81208,-0.793179 -0.93687,-1.931181 -0.81512,-3.002381 0.15988,-1.261181 0.48905,-2.485779 1.19074,-3.564233 0.82726,-1.310593 1.88133,-2.397956 3.1039,-3.350628 1.43726,-1.197713 3.13108,0.834871 1.69382,2.032585 z"
         id="path1047"
         style="opacity:1;vector-effect:none;fill:#ffffff;fill-opacity:1;fill-rule:nonzero;stroke:none;stroke-width:1.06500006;stroke-linecap:round;stroke-linejoin:miter;stroke-miterlimit:4;stroke-dasharray:none;stroke-dashoffset:0;stroke-opacity:1;paint-order:stroke fill markers" />
    </g>
  </g>
</svg>
